%TF.GenerationSoftware,KiCad,Pcbnew,10.0.2*%
%TF.CreationDate,2026-08-14T13:53:32+02:00*%
%TF.ProjectId,Geiger Counter,47656967-6572-4204-936f-756e7465722e,rev?*%
%TF.SameCoordinates,Original*%
%TF.FileFunction,Legend,Top*%
%TF.FilePolarity,Positive*%
%FSLAX46Y46*%
G04 Gerber Fmt 4.6, Leading zero omitted, Abs format (unit mm)*
G04 Created by KiCad (PCBNEW 10.0.2) date 2026-08-14 13:53:32*
%MOMM*%
%LPD*%
G01*
G04 APERTURE LIST*
%ADD10C,0.100000*%
%ADD11C,0.150000*%
%ADD12C,0.120000*%
G04 APERTURE END LIST*
D10*
X138713884Y-89832419D02*
X138713884Y-88832419D01*
X139285312Y-89832419D02*
X138856741Y-89260990D01*
X139285312Y-88832419D02*
X138713884Y-89403847D01*
X139856741Y-89832419D02*
X139761503Y-89784800D01*
X139761503Y-89784800D02*
X139713884Y-89737180D01*
X139713884Y-89737180D02*
X139666265Y-89641942D01*
X139666265Y-89641942D02*
X139666265Y-89356228D01*
X139666265Y-89356228D02*
X139713884Y-89260990D01*
X139713884Y-89260990D02*
X139761503Y-89213371D01*
X139761503Y-89213371D02*
X139856741Y-89165752D01*
X139856741Y-89165752D02*
X139999598Y-89165752D01*
X139999598Y-89165752D02*
X140094836Y-89213371D01*
X140094836Y-89213371D02*
X140142455Y-89260990D01*
X140142455Y-89260990D02*
X140190074Y-89356228D01*
X140190074Y-89356228D02*
X140190074Y-89641942D01*
X140190074Y-89641942D02*
X140142455Y-89737180D01*
X140142455Y-89737180D02*
X140094836Y-89784800D01*
X140094836Y-89784800D02*
X139999598Y-89832419D01*
X139999598Y-89832419D02*
X139856741Y-89832419D01*
X141047217Y-89784800D02*
X140951979Y-89832419D01*
X140951979Y-89832419D02*
X140761503Y-89832419D01*
X140761503Y-89832419D02*
X140666265Y-89784800D01*
X140666265Y-89784800D02*
X140618646Y-89737180D01*
X140618646Y-89737180D02*
X140571027Y-89641942D01*
X140571027Y-89641942D02*
X140571027Y-89356228D01*
X140571027Y-89356228D02*
X140618646Y-89260990D01*
X140618646Y-89260990D02*
X140666265Y-89213371D01*
X140666265Y-89213371D02*
X140761503Y-89165752D01*
X140761503Y-89165752D02*
X140951979Y-89165752D01*
X140951979Y-89165752D02*
X141047217Y-89213371D01*
X141475789Y-89832419D02*
X141475789Y-88832419D01*
X141904360Y-89832419D02*
X141904360Y-89308609D01*
X141904360Y-89308609D02*
X141856741Y-89213371D01*
X141856741Y-89213371D02*
X141761503Y-89165752D01*
X141761503Y-89165752D02*
X141618646Y-89165752D01*
X141618646Y-89165752D02*
X141523408Y-89213371D01*
X141523408Y-89213371D02*
X141475789Y-89260990D01*
X142809122Y-89832419D02*
X142809122Y-89308609D01*
X142809122Y-89308609D02*
X142761503Y-89213371D01*
X142761503Y-89213371D02*
X142666265Y-89165752D01*
X142666265Y-89165752D02*
X142475789Y-89165752D01*
X142475789Y-89165752D02*
X142380551Y-89213371D01*
X142809122Y-89784800D02*
X142713884Y-89832419D01*
X142713884Y-89832419D02*
X142475789Y-89832419D01*
X142475789Y-89832419D02*
X142380551Y-89784800D01*
X142380551Y-89784800D02*
X142332932Y-89689561D01*
X142332932Y-89689561D02*
X142332932Y-89594323D01*
X142332932Y-89594323D02*
X142380551Y-89499085D01*
X142380551Y-89499085D02*
X142475789Y-89451466D01*
X142475789Y-89451466D02*
X142713884Y-89451466D01*
X142713884Y-89451466D02*
X142809122Y-89403847D01*
X143285313Y-89832419D02*
X143285313Y-89165752D01*
X143285313Y-89260990D02*
X143332932Y-89213371D01*
X143332932Y-89213371D02*
X143428170Y-89165752D01*
X143428170Y-89165752D02*
X143571027Y-89165752D01*
X143571027Y-89165752D02*
X143666265Y-89213371D01*
X143666265Y-89213371D02*
X143713884Y-89308609D01*
X143713884Y-89308609D02*
X143713884Y-89832419D01*
X143713884Y-89308609D02*
X143761503Y-89213371D01*
X143761503Y-89213371D02*
X143856741Y-89165752D01*
X143856741Y-89165752D02*
X143999598Y-89165752D01*
X143999598Y-89165752D02*
X144094837Y-89213371D01*
X144094837Y-89213371D02*
X144142456Y-89308609D01*
X144142456Y-89308609D02*
X144142456Y-89832419D01*
X145332932Y-89546704D02*
X145809122Y-89546704D01*
X145237694Y-89832419D02*
X145571027Y-88832419D01*
X145571027Y-88832419D02*
X145904360Y-89832419D01*
X146666265Y-89165752D02*
X146666265Y-89975276D01*
X146666265Y-89975276D02*
X146618646Y-90070514D01*
X146618646Y-90070514D02*
X146571027Y-90118133D01*
X146571027Y-90118133D02*
X146475789Y-90165752D01*
X146475789Y-90165752D02*
X146332932Y-90165752D01*
X146332932Y-90165752D02*
X146237694Y-90118133D01*
X146666265Y-89784800D02*
X146571027Y-89832419D01*
X146571027Y-89832419D02*
X146380551Y-89832419D01*
X146380551Y-89832419D02*
X146285313Y-89784800D01*
X146285313Y-89784800D02*
X146237694Y-89737180D01*
X146237694Y-89737180D02*
X146190075Y-89641942D01*
X146190075Y-89641942D02*
X146190075Y-89356228D01*
X146190075Y-89356228D02*
X146237694Y-89260990D01*
X146237694Y-89260990D02*
X146285313Y-89213371D01*
X146285313Y-89213371D02*
X146380551Y-89165752D01*
X146380551Y-89165752D02*
X146571027Y-89165752D01*
X146571027Y-89165752D02*
X146666265Y-89213371D01*
X147571027Y-89832419D02*
X147571027Y-89308609D01*
X147571027Y-89308609D02*
X147523408Y-89213371D01*
X147523408Y-89213371D02*
X147428170Y-89165752D01*
X147428170Y-89165752D02*
X147237694Y-89165752D01*
X147237694Y-89165752D02*
X147142456Y-89213371D01*
X147571027Y-89784800D02*
X147475789Y-89832419D01*
X147475789Y-89832419D02*
X147237694Y-89832419D01*
X147237694Y-89832419D02*
X147142456Y-89784800D01*
X147142456Y-89784800D02*
X147094837Y-89689561D01*
X147094837Y-89689561D02*
X147094837Y-89594323D01*
X147094837Y-89594323D02*
X147142456Y-89499085D01*
X147142456Y-89499085D02*
X147237694Y-89451466D01*
X147237694Y-89451466D02*
X147475789Y-89451466D01*
X147475789Y-89451466D02*
X147571027Y-89403847D01*
X147904361Y-89165752D02*
X148285313Y-89165752D01*
X148047218Y-88832419D02*
X148047218Y-89689561D01*
X148047218Y-89689561D02*
X148094837Y-89784800D01*
X148094837Y-89784800D02*
X148190075Y-89832419D01*
X148190075Y-89832419D02*
X148285313Y-89832419D01*
X148618647Y-89832419D02*
X148618647Y-88832419D01*
X148713885Y-89451466D02*
X148999599Y-89832419D01*
X148999599Y-89165752D02*
X148618647Y-89546704D01*
X149809123Y-89784800D02*
X149713885Y-89832419D01*
X149713885Y-89832419D02*
X149523409Y-89832419D01*
X149523409Y-89832419D02*
X149428171Y-89784800D01*
X149428171Y-89784800D02*
X149380552Y-89689561D01*
X149380552Y-89689561D02*
X149380552Y-89308609D01*
X149380552Y-89308609D02*
X149428171Y-89213371D01*
X149428171Y-89213371D02*
X149523409Y-89165752D01*
X149523409Y-89165752D02*
X149713885Y-89165752D01*
X149713885Y-89165752D02*
X149809123Y-89213371D01*
X149809123Y-89213371D02*
X149856742Y-89308609D01*
X149856742Y-89308609D02*
X149856742Y-89403847D01*
X149856742Y-89403847D02*
X149380552Y-89499085D01*
X151047219Y-89737180D02*
X151094838Y-89784800D01*
X151094838Y-89784800D02*
X151047219Y-89832419D01*
X151047219Y-89832419D02*
X150999600Y-89784800D01*
X150999600Y-89784800D02*
X151047219Y-89737180D01*
X151047219Y-89737180D02*
X151047219Y-89832419D01*
X151047219Y-89213371D02*
X151094838Y-89260990D01*
X151094838Y-89260990D02*
X151047219Y-89308609D01*
X151047219Y-89308609D02*
X150999600Y-89260990D01*
X150999600Y-89260990D02*
X151047219Y-89213371D01*
X151047219Y-89213371D02*
X151047219Y-89308609D01*
X151666266Y-88832419D02*
X151666266Y-89070514D01*
X151428171Y-88975276D02*
X151666266Y-89070514D01*
X151666266Y-89070514D02*
X151904361Y-88975276D01*
X151523409Y-89260990D02*
X151666266Y-89070514D01*
X151666266Y-89070514D02*
X151809123Y-89260990D01*
X120804666Y-144027419D02*
X120804666Y-144741704D01*
X120804666Y-144741704D02*
X120757047Y-144884561D01*
X120757047Y-144884561D02*
X120661809Y-144979800D01*
X120661809Y-144979800D02*
X120518952Y-145027419D01*
X120518952Y-145027419D02*
X120423714Y-145027419D01*
X121709428Y-144027419D02*
X121518952Y-144027419D01*
X121518952Y-144027419D02*
X121423714Y-144075038D01*
X121423714Y-144075038D02*
X121376095Y-144122657D01*
X121376095Y-144122657D02*
X121280857Y-144265514D01*
X121280857Y-144265514D02*
X121233238Y-144455990D01*
X121233238Y-144455990D02*
X121233238Y-144836942D01*
X121233238Y-144836942D02*
X121280857Y-144932180D01*
X121280857Y-144932180D02*
X121328476Y-144979800D01*
X121328476Y-144979800D02*
X121423714Y-145027419D01*
X121423714Y-145027419D02*
X121614190Y-145027419D01*
X121614190Y-145027419D02*
X121709428Y-144979800D01*
X121709428Y-144979800D02*
X121757047Y-144932180D01*
X121757047Y-144932180D02*
X121804666Y-144836942D01*
X121804666Y-144836942D02*
X121804666Y-144598847D01*
X121804666Y-144598847D02*
X121757047Y-144503609D01*
X121757047Y-144503609D02*
X121709428Y-144455990D01*
X121709428Y-144455990D02*
X121614190Y-144408371D01*
X121614190Y-144408371D02*
X121423714Y-144408371D01*
X121423714Y-144408371D02*
X121328476Y-144455990D01*
X121328476Y-144455990D02*
X121280857Y-144503609D01*
X121280857Y-144503609D02*
X121233238Y-144598847D01*
D11*
X158865714Y-154624819D02*
X158865714Y-153624819D01*
X158865714Y-153624819D02*
X159103809Y-153624819D01*
X159103809Y-153624819D02*
X159246666Y-153672438D01*
X159246666Y-153672438D02*
X159341904Y-153767676D01*
X159341904Y-153767676D02*
X159389523Y-153862914D01*
X159389523Y-153862914D02*
X159437142Y-154053390D01*
X159437142Y-154053390D02*
X159437142Y-154196247D01*
X159437142Y-154196247D02*
X159389523Y-154386723D01*
X159389523Y-154386723D02*
X159341904Y-154481961D01*
X159341904Y-154481961D02*
X159246666Y-154577200D01*
X159246666Y-154577200D02*
X159103809Y-154624819D01*
X159103809Y-154624819D02*
X158865714Y-154624819D01*
X160389523Y-154624819D02*
X159818095Y-154624819D01*
X160103809Y-154624819D02*
X160103809Y-153624819D01*
X160103809Y-153624819D02*
X160008571Y-153767676D01*
X160008571Y-153767676D02*
X159913333Y-153862914D01*
X159913333Y-153862914D02*
X159818095Y-153910533D01*
X161008571Y-153624819D02*
X161103809Y-153624819D01*
X161103809Y-153624819D02*
X161199047Y-153672438D01*
X161199047Y-153672438D02*
X161246666Y-153720057D01*
X161246666Y-153720057D02*
X161294285Y-153815295D01*
X161294285Y-153815295D02*
X161341904Y-154005771D01*
X161341904Y-154005771D02*
X161341904Y-154243866D01*
X161341904Y-154243866D02*
X161294285Y-154434342D01*
X161294285Y-154434342D02*
X161246666Y-154529580D01*
X161246666Y-154529580D02*
X161199047Y-154577200D01*
X161199047Y-154577200D02*
X161103809Y-154624819D01*
X161103809Y-154624819D02*
X161008571Y-154624819D01*
X161008571Y-154624819D02*
X160913333Y-154577200D01*
X160913333Y-154577200D02*
X160865714Y-154529580D01*
X160865714Y-154529580D02*
X160818095Y-154434342D01*
X160818095Y-154434342D02*
X160770476Y-154243866D01*
X160770476Y-154243866D02*
X160770476Y-154005771D01*
X160770476Y-154005771D02*
X160818095Y-153815295D01*
X160818095Y-153815295D02*
X160865714Y-153720057D01*
X160865714Y-153720057D02*
X160913333Y-153672438D01*
X160913333Y-153672438D02*
X161008571Y-153624819D01*
%TO.C,J6*%
D10*
X125122000Y-147434000D02*
X125122000Y-150434000D01*
X125122000Y-150434000D02*
X143122000Y-150434000D01*
X143122000Y-147434000D02*
X143122000Y-150434000D01*
X177122000Y-147434000D02*
X177122000Y-150434000D01*
X177122000Y-150434000D02*
X195122000Y-150434000D01*
X195122000Y-147434000D02*
X195122000Y-150434000D01*
X120122000Y-93434000D02*
X200122000Y-93434000D01*
X200122000Y-147434000D01*
X120122000Y-147434000D01*
X120122000Y-93434000D01*
X124772000Y-97384000D02*
X195472000Y-97384000D01*
X195472000Y-136184000D01*
X124772000Y-136184000D01*
X124772000Y-97384000D01*
X126882000Y-100164000D02*
X193382000Y-100164000D01*
X193382000Y-133364000D01*
X126882000Y-133364000D01*
X126882000Y-100164000D01*
%TO.C,D10*%
D12*
X157795000Y-154865000D02*
X157795000Y-157135000D01*
X157795000Y-157135000D02*
X161680000Y-157135000D01*
X161680000Y-154865000D02*
X157795000Y-154865000D01*
%TD*%
M02*
