M48
; DRILL file KiCad 10.0.2 date 2026-08-14T13:53:31
; FORMAT={-:-/ absolute / metric / decimal}
; #@! TF.CreationDate,2026-08-14T13:53:31+02:00
; #@! TF.GenerationSoftware,Kicad,Pcbnew,10.0.2
; #@! TF.FileFunction,Plated,1,2,PTH
FMAT,2
METRIC
; #@! TA.AperFunction,Plated,PTH,ComponentDrill
T1C0.200
; #@! TA.AperFunction,Plated,PTH,ViaDrill
T2C0.250
; #@! TA.AperFunction,Plated,PTH,ViaDrill
T3C0.300
; #@! TA.AperFunction,Plated,PTH,ComponentDrill
T4C0.300
; #@! TA.AperFunction,Plated,PTH,ViaDrill
T5C0.350
; #@! TA.AperFunction,Plated,PTH,ComponentDrill
T6C0.600
; #@! TA.AperFunction,Plated,PTH,ComponentDrill
T7C0.700
; #@! TA.AperFunction,Plated,PTH,ComponentDrill
T8C0.800
; #@! TA.AperFunction,Plated,PTH,ComponentDrill
T9C0.900
; #@! TA.AperFunction,Plated,PTH,ComponentDrill
T10C1.000
%
G90
G05
T1
X139.26Y-116.94
X139.26Y-117.94
X139.26Y-118.94
X140.26Y-116.94
X140.26Y-117.94
X140.26Y-118.94
X141.26Y-116.94
X141.26Y-117.94
X141.26Y-118.94
X180.535Y-109.275
X180.535Y-110.675
X181.735Y-109.275
X181.735Y-110.675
X182.935Y-109.275
X182.935Y-110.675
T2
X124.44Y-96.564
X124.44Y-98.342
X124.44Y-99.866
X124.44Y-101.39
X124.44Y-102.914
X124.44Y-104.438
X124.44Y-105.962
X124.44Y-107.486
X124.44Y-109.01
X124.44Y-110.534
X124.44Y-112.058
X124.44Y-113.582
X124.44Y-115.106
X124.44Y-116.63
X124.44Y-118.154
X124.44Y-119.678
X124.44Y-121.964
X124.44Y-123.996
X124.44Y-125.52
X124.44Y-127.044
X124.44Y-128.568
X124.44Y-130.092
X124.44Y-131.616
X124.44Y-133.14
X124.44Y-134.664
X124.44Y-136.188
X124.44Y-137.712
X124.44Y-139.236
X124.44Y-140.76
X124.44Y-142.284
X124.44Y-143.808
X124.44Y-145.332
X124.44Y-146.856
X124.44Y-148.38
X125.71Y-119.678
X125.71Y-121.964
X127.234Y-119.678
X127.234Y-121.964
X128.758Y-119.678
X128.758Y-121.964
X130.282Y-119.678
X130.282Y-121.964
X131.806Y-119.678
X131.806Y-121.964
X132.06Y-115.868
X133.03Y-116.15
X133.33Y-121.964
X134.6Y-119.932
X134.763Y-118.063
X134.854Y-110.28
X134.854Y-121.964
X134.921Y-113.562
X135.518Y-114.188
X135.73Y-118.1
X136.03Y-113.7
X136.105Y-99.025
X136.378Y-102.152
X136.378Y-121.964
X136.378Y-123.742
X136.987Y-118.174
X137.036Y-113.562
X137.14Y-108.502
X137.394Y-121.456
X137.735Y-113.572
X138.156Y-120.948
X138.505Y-114.127
X138.88Y-111.6
X138.919Y-113.562
X138.93Y-99.0
X139.619Y-113.562
X139.934Y-121.202
X140.319Y-113.562
X140.805Y-124.325
X141.005Y-113.7
X142.474Y-96.818
X142.474Y-148.888
X142.83Y-114.0
X143.205Y-100.475
X143.236Y-143.3
X143.285Y-121.124
X143.307Y-121.824
X143.357Y-122.522
X143.364Y-120.425
X144.605Y-120.825
X144.76Y-144.062
X145.988Y-118.958
X146.83Y-143.5
X147.554Y-133.902
X148.062Y-117.265
X148.57Y-97.072
X149.078Y-138.728
X150.983Y-114.979
X152.655Y-119.75
X153.08Y-125.266
X153.355Y-119.75
X153.68Y-117.25
X153.83Y-112.0
X155.174Y-107.994
X155.174Y-145.84
X156.08Y-144.0
X156.33Y-117.25
X157.46Y-146.856
X158.83Y-154.0
X163.302Y-92.35
X174.08Y-115.75
X176.37Y-147.72
X178.4Y-114.3
X181.33Y-103.825
X181.705Y-106.314
X182.8Y-116.1
X183.293Y-105.007
T3
X133.584Y-127.552
X137.14Y-133.14
X143.49Y-133.394
X149.586Y-128.822
X149.586Y-132.886
X158.08Y-100.5
X163.31Y-97.0
X168.382Y-123.234
X172.7Y-116.376
X188.702Y-115.36
T4
X123.678Y-122.975
T5
X130.38Y-105.3
X137.648Y-153.206
X141.88Y-95.9
X146.284Y-113.836
X149.078Y-121.71
X151.11Y-157.016
X160.33Y-95.75
X162.33Y-95.25
X163.58Y-99.25
X185.08Y-105.5
T7
X169.33Y-98.887
X169.33Y-101.427
X169.33Y-106.507
X169.33Y-111.587
T8
X127.742Y-148.634
X130.282Y-148.634
X132.822Y-148.634
X135.362Y-148.634
X137.902Y-148.634
X140.442Y-148.634
X179.812Y-148.634
X182.08Y-121.325
X182.08Y-127.75
X182.352Y-148.634
X184.892Y-148.634
X187.432Y-148.634
X189.972Y-148.634
X192.08Y-121.325
X192.08Y-127.75
X192.512Y-148.634
T9
X132.83Y-139.0
X136.83Y-139.0
T10
X150.13Y-149.865
X152.67Y-149.865
X155.21Y-149.865
X157.75Y-149.865
X160.29Y-149.865
X162.83Y-149.865
T6
G00X155.76Y-86.775
M15
G01X155.76Y-87.575
M16
G05
G00X155.76Y-90.805
M15
G01X155.76Y-91.905
M16
G05
G00X164.4Y-86.775
M15
G01X164.4Y-87.575
M16
G05
G00X164.4Y-90.805
M15
G01X164.4Y-91.905
M16
G05
M30
