%TF.GenerationSoftware,KiCad,Pcbnew,10.0.2*%
%TF.CreationDate,2026-08-14T13:53:32+02:00*%
%TF.ProjectId,Geiger Counter,47656967-6572-4204-936f-756e7465722e,rev?*%
%TF.SameCoordinates,Original*%
%TF.FileFunction,Soldermask,Top*%
%TF.FilePolarity,Negative*%
%FSLAX46Y46*%
G04 Gerber Fmt 4.6, Leading zero omitted, Abs format (unit mm)*
G04 Created by KiCad (PCBNEW 10.0.2) date 2026-08-14 13:53:32*
%MOMM*%
%LPD*%
G01*
G04 APERTURE LIST*
G04 Aperture macros list*
%AMRoundRect*
0 Rectangle with rounded corners*
0 $1 Rounding radius*
0 $2 $3 $4 $5 $6 $7 $8 $9 X,Y pos of 4 corners*
0 Add a 4 corners polygon primitive as box body*
4,1,4,$2,$3,$4,$5,$6,$7,$8,$9,$2,$3,0*
0 Add four circle primitives for the rounded corners*
1,1,$1+$1,$2,$3*
1,1,$1+$1,$4,$5*
1,1,$1+$1,$6,$7*
1,1,$1+$1,$8,$9*
0 Add four rect primitives between the rounded corners*
20,1,$1+$1,$2,$3,$4,$5,0*
20,1,$1+$1,$4,$5,$6,$7,0*
20,1,$1+$1,$6,$7,$8,$9,0*
20,1,$1+$1,$8,$9,$2,$3,0*%
G04 Aperture macros list end*
%ADD10C,1.800000*%
%ADD11RoundRect,0.250000X-0.375000X-0.625000X0.375000X-0.625000X0.375000X0.625000X-0.375000X0.625000X0*%
%ADD12C,3.200000*%
%ADD13C,0.650000*%
%ADD14O,1.000000X1.800000*%
%ADD15O,1.000000X2.100000*%
%ADD16R,1.700000X1.700000*%
%ADD17C,1.700000*%
%ADD18C,1.600000*%
%ADD19R,1.600000X1.600000*%
%ADD20O,1.500000X1.500000*%
%ADD21R,1.500000X1.500000*%
G04 APERTURE END LIST*
D10*
%TO.C,J6*%
X127742000Y-148634000D03*
X130282000Y-148634000D03*
X132822000Y-148634000D03*
X135362000Y-148634000D03*
X137902000Y-148634000D03*
X140442000Y-148634000D03*
X179812000Y-148634000D03*
X182352000Y-148634000D03*
X184892000Y-148634000D03*
X187432000Y-148634000D03*
X189972000Y-148634000D03*
X192512000Y-148634000D03*
%TD*%
D11*
%TO.C,D10*%
X158680000Y-156000000D03*
X161480000Y-156000000D03*
%TD*%
D12*
%TO.C,H4*%
X133330000Y-155000000D03*
%TD*%
%TO.C,H3*%
X186670000Y-89000000D03*
%TD*%
%TO.C,H1*%
X186670000Y-155000000D03*
%TD*%
%TO.C,H2*%
X133330000Y-89000000D03*
%TD*%
D13*
%TO.C,J2*%
X157190000Y-90855000D03*
X162970000Y-90855000D03*
D14*
X155760000Y-87175000D03*
D15*
X155760000Y-91355000D03*
D14*
X164400000Y-87175000D03*
D15*
X164400000Y-91355000D03*
%TD*%
D16*
%TO.C,J3*%
X150130000Y-149865000D03*
D17*
X152670000Y-149865000D03*
X155210000Y-149865000D03*
X157750000Y-149865000D03*
X160290000Y-149865000D03*
X162830000Y-149865000D03*
%TD*%
D18*
%TO.C,C26*%
X192080000Y-121325000D03*
X182080000Y-121325000D03*
%TD*%
D19*
%TO.C,BZ1*%
X132830000Y-139000000D03*
D18*
X136830000Y-139000000D03*
%TD*%
%TO.C,C42*%
X192080000Y-127750000D03*
X182080000Y-127750000D03*
%TD*%
D20*
%TO.C,U4*%
X169330000Y-101427500D03*
D21*
X169330000Y-98887500D03*
D20*
X169330000Y-106507500D03*
X169330000Y-111587500D03*
%TD*%
M02*
