%TF.GenerationSoftware,KiCad,Pcbnew,10.0.2*%
%TF.CreationDate,2026-08-17T14:34:31+02:00*%
%TF.ProjectId,buttons,62757474-6f6e-4732-9e6b-696361645f70,rev?*%
%TF.SameCoordinates,Original*%
%TF.FileFunction,Copper,L2,Bot*%
%TF.FilePolarity,Positive*%
%FSLAX46Y46*%
G04 Gerber Fmt 4.6, Leading zero omitted, Abs format (unit mm)*
G04 Created by KiCad (PCBNEW 10.0.2) date 2026-08-17 14:34:31*
%MOMM*%
%LPD*%
G01*
G04 APERTURE LIST*
G04 Aperture macros list*
%AMRoundRect*
0 Rectangle with rounded corners*
0 $1 Rounding radius*
0 $2 $3 $4 $5 $6 $7 $8 $9 X,Y pos of 4 corners*
0 Add a 4 corners polygon primitive as box body*
4,1,4,$2,$3,$4,$5,$6,$7,$8,$9,$2,$3,0*
0 Add four circle primitives for the rounded corners*
1,1,$1+$1,$2,$3*
1,1,$1+$1,$4,$5*
1,1,$1+$1,$6,$7*
1,1,$1+$1,$8,$9*
0 Add four rect primitives between the rounded corners*
20,1,$1+$1,$2,$3,$4,$5,0*
20,1,$1+$1,$4,$5,$6,$7,0*
20,1,$1+$1,$6,$7,$8,$9,0*
20,1,$1+$1,$8,$9,$2,$3,0*%
G04 Aperture macros list end*
%TA.AperFunction,SMDPad,CuDef*%
%ADD10RoundRect,0.135000X-0.185000X0.135000X-0.185000X-0.135000X0.185000X-0.135000X0.185000X0.135000X0*%
%TD*%
%TA.AperFunction,SMDPad,CuDef*%
%ADD11RoundRect,0.250000X-0.375000X-0.625000X0.375000X-0.625000X0.375000X0.625000X-0.375000X0.625000X0*%
%TD*%
%TA.AperFunction,SMDPad,CuDef*%
%ADD12RoundRect,0.135000X0.185000X-0.135000X0.185000X0.135000X-0.185000X0.135000X-0.185000X-0.135000X0*%
%TD*%
%TA.AperFunction,SMDPad,CuDef*%
%ADD13RoundRect,0.140000X0.170000X-0.140000X0.170000X0.140000X-0.170000X0.140000X-0.170000X-0.140000X0*%
%TD*%
%TA.AperFunction,SMDPad,CuDef*%
%ADD14RoundRect,0.162500X0.162500X-0.837500X0.162500X0.837500X-0.162500X0.837500X-0.162500X-0.837500X0*%
%TD*%
%TA.AperFunction,SMDPad,CuDef*%
%ADD15RoundRect,0.140000X-0.140000X-0.170000X0.140000X-0.170000X0.140000X0.170000X-0.140000X0.170000X0*%
%TD*%
%TA.AperFunction,SMDPad,CuDef*%
%ADD16R,0.350000X1.500000*%
%TD*%
%TA.AperFunction,SMDPad,CuDef*%
%ADD17R,2.000000X1.700000*%
%TD*%
%TA.AperFunction,ViaPad*%
%ADD18C,0.600000*%
%TD*%
%TA.AperFunction,Conductor*%
%ADD19C,0.200000*%
%TD*%
G04 APERTURE END LIST*
D10*
%TO.P,R3,1*%
%TO.N,BUTTON_LEFT_Q*%
X112500000Y-65490000D03*
%TO.P,R3,2*%
%TO.N,Net-(D3-A)*%
X112500000Y-66510000D03*
%TD*%
%TO.P,R2,1*%
%TO.N,BUTTON_RIGHT_Q*%
X135500000Y-65490000D03*
%TO.P,R2,2*%
%TO.N,Net-(D2-A)*%
X135500000Y-66510000D03*
%TD*%
%TO.P,R1,1*%
%TO.N,PWR_BUTTON*%
X123500000Y-65490000D03*
%TO.P,R1,2*%
%TO.N,Net-(D1-A)*%
X123500000Y-66510000D03*
%TD*%
D11*
%TO.P,D3,1,K_1*%
%TO.N,GND*%
X110100000Y-68500000D03*
%TO.P,D3,2,A_2*%
%TO.N,Net-(D3-A)*%
X112900000Y-68500000D03*
%TD*%
%TO.P,D2,1,K_1*%
%TO.N,GND*%
X133100000Y-68500000D03*
%TO.P,D2,2,A_2*%
%TO.N,Net-(D2-A)*%
X135900000Y-68500000D03*
%TD*%
%TO.P,D1,1,K_1*%
%TO.N,GND*%
X121600000Y-68500000D03*
%TO.P,D1,2,A_2*%
%TO.N,Net-(D1-A)*%
X124400000Y-68500000D03*
%TD*%
D12*
%TO.P,JP5,1,A_1*%
%TO.N,Net-(JP5-A)*%
X135500000Y-57510000D03*
%TO.P,JP5,2,B_2*%
%TO.N,+3.3V*%
X135500000Y-56490000D03*
%TD*%
%TO.P,JP2,1,A_1*%
%TO.N,Net-(JP2-A)*%
X121500000Y-57510000D03*
%TO.P,JP2,2,B_2*%
%TO.N,B+*%
X121500000Y-56490000D03*
%TD*%
%TO.P,JP6,1,A_1*%
%TO.N,Net-(JP6-A)*%
X133500000Y-57510000D03*
%TO.P,JP6,2,B_2*%
%TO.N,+3.3V*%
X133500000Y-56490000D03*
%TD*%
%TO.P,JP4,1,A_1*%
%TO.N,Net-(JP4-A)*%
X110500000Y-57510000D03*
%TO.P,JP4,2,B_2*%
%TO.N,+3.3V*%
X110500000Y-56490000D03*
%TD*%
D13*
%TO.P,C4,1*%
%TO.N,+3.3V*%
X111500000Y-57480000D03*
%TO.P,C4,2*%
%TO.N,GND*%
X111500000Y-56520000D03*
%TD*%
D14*
%TO.P,U1,1,Q_1*%
%TO.N,PWR_BUTTON*%
X123450000Y-63210000D03*
%TO.P,U1,2,VSS_2*%
%TO.N,GND*%
X122500000Y-63210000D03*
%TO.P,U1,3,I_3*%
%TO.N,Net-(U1-I)*%
X121550000Y-63210000D03*
%TO.P,U1,4,AHLB_4*%
%TO.N,Net-(JP2-A)*%
X121550000Y-59790000D03*
%TO.P,U1,5,VDD_5*%
%TO.N,B+*%
X122500000Y-59790000D03*
%TO.P,U1,6,TOG_6*%
%TO.N,Net-(JP1-A)*%
X123450000Y-59790000D03*
%TD*%
D15*
%TO.P,C5,1*%
%TO.N,Net-(U3-I)*%
X133520000Y-65500000D03*
%TO.P,C5,2*%
%TO.N,GND*%
X134480000Y-65500000D03*
%TD*%
D14*
%TO.P,U3,1,Q_1*%
%TO.N,BUTTON_RIGHT_Q*%
X135450000Y-63210000D03*
%TO.P,U3,2,VSS_2*%
%TO.N,GND*%
X134500000Y-63210000D03*
%TO.P,U3,3,I_3*%
%TO.N,Net-(U3-I)*%
X133550000Y-63210000D03*
%TO.P,U3,4,AHLB_4*%
%TO.N,Net-(JP6-A)*%
X133550000Y-59790000D03*
%TO.P,U3,5,VDD_5*%
%TO.N,+3.3V*%
X134500000Y-59790000D03*
%TO.P,U3,6,TOG_6*%
%TO.N,Net-(JP5-A)*%
X135450000Y-59790000D03*
%TD*%
D13*
%TO.P,C6,1*%
%TO.N,+3.3V*%
X134500000Y-57480000D03*
%TO.P,C6,2*%
%TO.N,GND*%
X134500000Y-56520000D03*
%TD*%
%TO.P,C2,1*%
%TO.N,B+*%
X122500000Y-57480000D03*
%TO.P,C2,2*%
%TO.N,GND*%
X122500000Y-56520000D03*
%TD*%
D15*
%TO.P,C3,1*%
%TO.N,Net-(U2-I)*%
X110540000Y-65500000D03*
%TO.P,C3,2*%
%TO.N,GND*%
X111500000Y-65500000D03*
%TD*%
D12*
%TO.P,JP3,1,A_1*%
%TO.N,Net-(JP3-A)*%
X112500000Y-57510000D03*
%TO.P,JP3,2,B_2*%
%TO.N,+3.3V*%
X112500000Y-56490000D03*
%TD*%
%TO.P,JP1,1,A_1*%
%TO.N,Net-(JP1-A)*%
X123500000Y-57510000D03*
%TO.P,JP1,2,B_2*%
%TO.N,B+*%
X123500000Y-56490000D03*
%TD*%
D14*
%TO.P,U2,1,Q_1*%
%TO.N,BUTTON_LEFT_Q*%
X112450000Y-63210000D03*
%TO.P,U2,2,VSS_2*%
%TO.N,GND*%
X111500000Y-63210000D03*
%TO.P,U2,3,I_3*%
%TO.N,Net-(U2-I)*%
X110550000Y-63210000D03*
%TO.P,U2,4,AHLB_4*%
%TO.N,Net-(JP4-A)*%
X110550000Y-59790000D03*
%TO.P,U2,5,VDD_5*%
%TO.N,+3.3V*%
X111500000Y-59790000D03*
%TO.P,U2,6,TOG_6*%
%TO.N,Net-(JP3-A)*%
X112450000Y-59790000D03*
%TD*%
D16*
%TO.P,J7,1,Pin_1_1*%
%TO.N,GND*%
X100750000Y-59560000D03*
%TO.P,J7,2,Pin_2_2*%
X101250000Y-59560000D03*
%TO.P,J7,3,Pin_3_3*%
%TO.N,unconnected-(J7-Pin_3-Pad3)*%
X101750000Y-59560000D03*
%TO.P,J7,4,Pin_4_4*%
%TO.N,BUTTON_RIGHT_Q*%
X102250000Y-59560000D03*
%TO.P,J7,5,Pin_5_5*%
%TO.N,BUTTON_LEFT_Q*%
X102750000Y-59560000D03*
%TO.P,J7,6,Pin_6_6*%
%TO.N,PWR_BUTTON*%
X103250000Y-59560000D03*
%TO.P,J7,7,Pin_7_7*%
%TO.N,+3.3V*%
X103750000Y-59560000D03*
%TO.P,J7,8,Pin_8_8*%
%TO.N,B+*%
X104250000Y-59560000D03*
D17*
%TO.P,J7,9,Pin_9_9*%
%TO.N,GND*%
X106000000Y-57000000D03*
X99000000Y-57000000D03*
%TD*%
D15*
%TO.P,C1,1*%
%TO.N,Net-(U1-I)*%
X121520000Y-65500000D03*
%TO.P,C1,2*%
%TO.N,GND*%
X122480000Y-65500000D03*
%TD*%
D18*
%TO.N,GND*%
X120396000Y-56896000D03*
X122500000Y-56520000D03*
X96520000Y-55880000D03*
X104140000Y-55880000D03*
X109220000Y-55880000D03*
X114300000Y-55880000D03*
X119380000Y-55880000D03*
X127000000Y-55880000D03*
X132080000Y-55880000D03*
X137160000Y-55880000D03*
X142240000Y-55880000D03*
X147320000Y-55880000D03*
X147320000Y-60960000D03*
X147320000Y-71120000D03*
X91440000Y-55880000D03*
X91440000Y-60960000D03*
X91440000Y-71120000D03*
X132080000Y-76200000D03*
X142240000Y-76200000D03*
X147320000Y-76200000D03*
X137160000Y-76200000D03*
X111760000Y-76200000D03*
X121920000Y-76200000D03*
X127000000Y-76200000D03*
X116840000Y-76200000D03*
X106680000Y-76200000D03*
X101600000Y-76200000D03*
X96520000Y-76200000D03*
X91440000Y-76200000D03*
%TO.N,Net-(U3-I)*%
X137500000Y-66000000D03*
%TO.N,Net-(U1-I)*%
X120000000Y-66000000D03*
%TO.N,Net-(U2-I)*%
X102500000Y-66000000D03*
%TD*%
%TO.N,GND*%
D19*
X101250000Y-59560000D02*
X100750000Y-59560000D01*
%TO.N,BUTTON_RIGHT_Q*%
X101900000Y-61549000D02*
X102250000Y-61199000D01*
X101900000Y-68753000D02*
X101900000Y-61549000D01*
X104267000Y-71120000D02*
X101900000Y-68753000D01*
X136144000Y-71120000D02*
X104267000Y-71120000D01*
X137287000Y-69977000D02*
X136144000Y-71120000D01*
X137287000Y-67277000D02*
X137287000Y-69977000D01*
X102250000Y-61199000D02*
X102250000Y-59560000D01*
X135500000Y-65490000D02*
X137287000Y-67277000D01*
%TO.N,+3.3V*%
X126151471Y-55880000D02*
X126761471Y-56490000D01*
X120228529Y-55880000D02*
X126151471Y-55880000D01*
X126761471Y-56490000D02*
X133500000Y-56490000D01*
X119618529Y-56490000D02*
X120228529Y-55880000D01*
X112500000Y-56490000D02*
X119618529Y-56490000D01*
%TO.N,GND*%
X112140000Y-55880000D02*
X114300000Y-55880000D01*
X111500000Y-56520000D02*
X112140000Y-55880000D01*
X110860000Y-55880000D02*
X109220000Y-55880000D01*
X111500000Y-56520000D02*
X110860000Y-55880000D01*
X135140000Y-55880000D02*
X137160000Y-55880000D01*
X134500000Y-56520000D02*
X135140000Y-55880000D01*
%TO.N,+3.3V*%
X103750000Y-58535000D02*
X103750000Y-59560000D01*
X109245000Y-56490000D02*
X107315000Y-58420000D01*
X107315000Y-58420000D02*
X103865000Y-58420000D01*
X110500000Y-56490000D02*
X109245000Y-56490000D01*
X103865000Y-58420000D02*
X103750000Y-58535000D01*
%TO.N,Net-(JP3-A)*%
X112500000Y-59740000D02*
X112450000Y-59790000D01*
X112500000Y-57510000D02*
X112500000Y-59740000D01*
%TO.N,Net-(JP4-A)*%
X110500000Y-59740000D02*
X110550000Y-59790000D01*
X110500000Y-57510000D02*
X110500000Y-59740000D01*
%TO.N,Net-(U3-I)*%
X137500000Y-62570000D02*
X137500000Y-66000000D01*
X136840000Y-61910000D02*
X137500000Y-62570000D01*
X133850001Y-61910000D02*
X136840000Y-61910000D01*
X133550000Y-62210001D02*
X133850001Y-61910000D01*
X133550000Y-63210000D02*
X133550000Y-62210001D01*
%TO.N,Net-(U1-I)*%
X120500000Y-65500000D02*
X120000000Y-66000000D01*
X121520000Y-65500000D02*
X120500000Y-65500000D01*
%TO.N,Net-(U2-I)*%
X103000000Y-65500000D02*
X102500000Y-66000000D01*
X110540000Y-65500000D02*
X103000000Y-65500000D01*
%TO.N,Net-(D3-A)*%
X112500000Y-68100000D02*
X112900000Y-68500000D01*
X112500000Y-66510000D02*
X112500000Y-68100000D01*
%TO.N,Net-(D1-A)*%
X123500000Y-66510000D02*
X123500000Y-67600000D01*
X123500000Y-67600000D02*
X124400000Y-68500000D01*
%TO.N,Net-(U3-I)*%
X133550000Y-65470000D02*
X133520000Y-65500000D01*
X133550000Y-63210000D02*
X133550000Y-65470000D01*
%TO.N,Net-(D2-A)*%
X135500000Y-68100000D02*
X135900000Y-68500000D01*
X135500000Y-66510000D02*
X135500000Y-68100000D01*
%TO.N,BUTTON_RIGHT_Q*%
X135450000Y-63210000D02*
X135450000Y-65440000D01*
X135450000Y-65440000D02*
X135500000Y-65490000D01*
%TO.N,Net-(U2-I)*%
X110550000Y-65490000D02*
X110540000Y-65500000D01*
X110550000Y-63210000D02*
X110550000Y-65490000D01*
%TO.N,BUTTON_LEFT_Q*%
X112450000Y-65440000D02*
X112500000Y-65490000D01*
X112450000Y-63210000D02*
X112450000Y-65440000D01*
X112450000Y-62210001D02*
X112450000Y-63210000D01*
X112129999Y-61890000D02*
X112450000Y-62210001D01*
X106890000Y-61890000D02*
X112129999Y-61890000D01*
X106868000Y-61868000D02*
X106890000Y-61890000D01*
X102750000Y-60815686D02*
X103802314Y-61868000D01*
X103802314Y-61868000D02*
X106868000Y-61868000D01*
X102750000Y-59560000D02*
X102750000Y-60815686D01*
%TO.N,PWR_BUTTON*%
X103250000Y-60750000D02*
X103250000Y-59560000D01*
X103968000Y-61468000D02*
X103250000Y-60750000D01*
X108902315Y-61468000D02*
X103968000Y-61468000D01*
X110022738Y-61487000D02*
X108921314Y-61487000D01*
X110025738Y-61490000D02*
X110022738Y-61487000D01*
X112974261Y-61490000D02*
X110025738Y-61490000D01*
X112977262Y-61487000D02*
X112974261Y-61490000D01*
X121022739Y-61487000D02*
X112977262Y-61487000D01*
X121025738Y-61490000D02*
X121022739Y-61487000D01*
X122368684Y-61487000D02*
X122077262Y-61487000D01*
X122707999Y-61468000D02*
X122387685Y-61468000D01*
X108921314Y-61487000D02*
X108902315Y-61468000D01*
X122074261Y-61490000D02*
X121025738Y-61490000D01*
X123450000Y-62210001D02*
X122707999Y-61468000D01*
X122077262Y-61487000D02*
X122074261Y-61490000D01*
X123450000Y-63210000D02*
X123450000Y-62210001D01*
X122387685Y-61468000D02*
X122368684Y-61487000D01*
%TO.N,B+*%
X121188424Y-61087000D02*
X121191424Y-61090000D01*
X122500000Y-60789999D02*
X122500000Y-59790000D01*
X112811576Y-61087000D02*
X121188424Y-61087000D01*
X112808576Y-61090000D02*
X112811576Y-61087000D01*
X112091424Y-61090000D02*
X112808576Y-61090000D01*
X111861576Y-61087000D02*
X112088424Y-61087000D01*
X111858576Y-61090000D02*
X111861576Y-61087000D01*
X111141424Y-61090000D02*
X111858576Y-61090000D01*
X110911576Y-61087000D02*
X111138424Y-61087000D01*
X110908576Y-61090000D02*
X110911576Y-61087000D01*
X111138424Y-61087000D02*
X111141424Y-61090000D01*
X121908576Y-61090000D02*
X121911576Y-61087000D01*
X110191424Y-61090000D02*
X110908576Y-61090000D01*
X112088424Y-61087000D02*
X112091424Y-61090000D01*
X110188424Y-61087000D02*
X110191424Y-61090000D01*
X122202999Y-61087000D02*
X122500000Y-60789999D01*
X107560000Y-59560000D02*
X109087000Y-61087000D01*
X109087000Y-61087000D02*
X110188424Y-61087000D01*
X121191424Y-61090000D02*
X121908576Y-61090000D01*
X121911576Y-61087000D02*
X122202999Y-61087000D01*
X104250000Y-59560000D02*
X107560000Y-59560000D01*
%TO.N,Net-(JP6-A)*%
X133500000Y-59740000D02*
X133550000Y-59790000D01*
X133500000Y-57510000D02*
X133500000Y-59740000D01*
%TO.N,Net-(JP5-A)*%
X135500000Y-59740000D02*
X135450000Y-59790000D01*
X135500000Y-57510000D02*
X135500000Y-59740000D01*
%TO.N,+3.3V*%
X134500000Y-57480000D02*
X134500000Y-59790000D01*
X134510000Y-57480000D02*
X135500000Y-56490000D01*
X134500000Y-57480000D02*
X134510000Y-57480000D01*
X133510000Y-56490000D02*
X134500000Y-57480000D01*
X133500000Y-56490000D02*
X133510000Y-56490000D01*
X111510000Y-57480000D02*
X112500000Y-56490000D01*
X111500000Y-57480000D02*
X111510000Y-57480000D01*
X111500000Y-57480000D02*
X111500000Y-59790000D01*
X110510000Y-56490000D02*
X111500000Y-57480000D01*
X110500000Y-56490000D02*
X110510000Y-56490000D01*
%TO.N,PWR_BUTTON*%
X123450000Y-65440000D02*
X123500000Y-65490000D01*
X123450000Y-63210000D02*
X123450000Y-65440000D01*
%TO.N,Net-(U1-I)*%
X121550000Y-63210000D02*
X121550000Y-65470000D01*
X121550000Y-65470000D02*
X121520000Y-65500000D01*
%TO.N,Net-(JP1-A)*%
X123450000Y-57560000D02*
X123500000Y-57510000D01*
X123450000Y-59790000D02*
X123450000Y-57560000D01*
%TO.N,Net-(JP2-A)*%
X121550000Y-57560000D02*
X121500000Y-57510000D01*
X121550000Y-59790000D02*
X121550000Y-57560000D01*
%TO.N,B+*%
X122490000Y-57480000D02*
X121500000Y-56490000D01*
X122500000Y-57480000D02*
X122490000Y-57480000D01*
X122500000Y-57480000D02*
X122510000Y-57480000D01*
X122510000Y-57480000D02*
X123500000Y-56490000D01*
X122500000Y-59790000D02*
X122500000Y-57480000D01*
%TD*%
%TA.AperFunction,Conductor*%
%TO.N,GND*%
G36*
X97946938Y-55520185D02*
G01*
X97992693Y-55572989D01*
X98002637Y-55642147D01*
X98001143Y-55647591D01*
X99000000Y-56646447D01*
X100002526Y-55643921D01*
X99998071Y-55602483D01*
X100029346Y-55540004D01*
X100089435Y-55504352D01*
X100120101Y-55500500D01*
X104879899Y-55500500D01*
X104946938Y-55520185D01*
X104992693Y-55572989D01*
X105002637Y-55642147D01*
X105001143Y-55647591D01*
X106000000Y-56646447D01*
X107002526Y-55643921D01*
X106998071Y-55602483D01*
X107029346Y-55540004D01*
X107089435Y-55504352D01*
X107120101Y-55500500D01*
X111192009Y-55500500D01*
X111259048Y-55520185D01*
X111304803Y-55572989D01*
X111314747Y-55642147D01*
X111285722Y-55705703D01*
X111226944Y-55743477D01*
X111226604Y-55743577D01*
X111073803Y-55787969D01*
X110934625Y-55870278D01*
X110934616Y-55870285D01*
X110821373Y-55983529D01*
X110760050Y-56017014D01*
X110728375Y-56019375D01*
X110728375Y-56019500D01*
X110726706Y-56019500D01*
X110725593Y-56019583D01*
X110724325Y-56019500D01*
X110724316Y-56019500D01*
X110275684Y-56019500D01*
X110275683Y-56019500D01*
X110226828Y-56025931D01*
X110119595Y-56075935D01*
X110042350Y-56153181D01*
X109981027Y-56186666D01*
X109954669Y-56189500D01*
X109205438Y-56189500D01*
X109167224Y-56199739D01*
X109129009Y-56209979D01*
X109129004Y-56209982D01*
X109060495Y-56249535D01*
X109060487Y-56249541D01*
X107711681Y-57598348D01*
X107650358Y-57631833D01*
X107580666Y-57626849D01*
X107524733Y-57584977D01*
X107500316Y-57519513D01*
X107500000Y-57510667D01*
X107500000Y-56102172D01*
X107499999Y-56102155D01*
X107493598Y-56042626D01*
X107443973Y-55909577D01*
X106389872Y-56963681D01*
X106328549Y-56997166D01*
X106302191Y-57000000D01*
X105697809Y-57000000D01*
X105630770Y-56980315D01*
X105610128Y-56963681D01*
X104556025Y-55909578D01*
X104506403Y-56042620D01*
X104506401Y-56042627D01*
X104500000Y-56102155D01*
X104500000Y-57897844D01*
X104506401Y-57957372D01*
X104508187Y-57964930D01*
X104505418Y-57965584D01*
X104509444Y-58021856D01*
X104475959Y-58083180D01*
X104414637Y-58116666D01*
X104388277Y-58119500D01*
X103825438Y-58119500D01*
X103749010Y-58139978D01*
X103680489Y-58179540D01*
X103680486Y-58179542D01*
X103509541Y-58350487D01*
X103509535Y-58350495D01*
X103469982Y-58419004D01*
X103469979Y-58419009D01*
X103449500Y-58495438D01*
X103448677Y-58501690D01*
X103420407Y-58565586D01*
X103362081Y-58604054D01*
X103325738Y-58609500D01*
X103055251Y-58609500D01*
X103024188Y-58615678D01*
X102975812Y-58615678D01*
X102944749Y-58609500D01*
X102944748Y-58609500D01*
X102555252Y-58609500D01*
X102555251Y-58609500D01*
X102524188Y-58615678D01*
X102475812Y-58615678D01*
X102444749Y-58609500D01*
X102444748Y-58609500D01*
X102055252Y-58609500D01*
X102055251Y-58609500D01*
X102024188Y-58615678D01*
X102015953Y-58615683D01*
X102011230Y-58617550D01*
X101976449Y-58615711D01*
X101975984Y-58615712D01*
X101975278Y-58615572D01*
X101944748Y-58609500D01*
X101944517Y-58609500D01*
X101938393Y-58608291D01*
X101912492Y-58594790D01*
X101885409Y-58583835D01*
X101879166Y-58577418D01*
X101876435Y-58575995D01*
X101874519Y-58572643D01*
X101863143Y-58560950D01*
X101782190Y-58452812D01*
X101782187Y-58452809D01*
X101667093Y-58366649D01*
X101667086Y-58366645D01*
X101532379Y-58316403D01*
X101532372Y-58316401D01*
X101472844Y-58310000D01*
X101027167Y-58310000D01*
X101013253Y-58311496D01*
X100986747Y-58311496D01*
X100972832Y-58310000D01*
X100527947Y-58310000D01*
X100460908Y-58290315D01*
X100415153Y-58237511D01*
X100405209Y-58168353D01*
X100428681Y-58111688D01*
X100443352Y-58092089D01*
X100443354Y-58092086D01*
X100493596Y-57957379D01*
X100493598Y-57957372D01*
X100499999Y-57897844D01*
X100500000Y-57897827D01*
X100500000Y-56102172D01*
X100499999Y-56102155D01*
X100493598Y-56042626D01*
X100443973Y-55909577D01*
X99353553Y-57000000D01*
X98003552Y-58349999D01*
X98003553Y-58350000D01*
X100047054Y-58350000D01*
X100114093Y-58369685D01*
X100159848Y-58422489D01*
X100169792Y-58491647D01*
X100146320Y-58548312D01*
X100131646Y-58567913D01*
X100131645Y-58567914D01*
X100097349Y-58659863D01*
X100713681Y-59276194D01*
X100728384Y-59303121D01*
X100744977Y-59328940D01*
X100745868Y-59335140D01*
X100747166Y-59337517D01*
X100750000Y-59363875D01*
X100750000Y-59508124D01*
X100734268Y-59561698D01*
X100749684Y-59603029D01*
X100750000Y-59611875D01*
X100750000Y-59756124D01*
X100730315Y-59823163D01*
X100713681Y-59843805D01*
X100097349Y-60460135D01*
X100131648Y-60552091D01*
X100131648Y-60552092D01*
X100217809Y-60667187D01*
X100217812Y-60667190D01*
X100332906Y-60753350D01*
X100332913Y-60753354D01*
X100467620Y-60803596D01*
X100467627Y-60803598D01*
X100527155Y-60809999D01*
X100527172Y-60810000D01*
X100972821Y-60810000D01*
X100986737Y-60808503D01*
X101013263Y-60808503D01*
X101027179Y-60810000D01*
X101472828Y-60810000D01*
X101472844Y-60809999D01*
X101532372Y-60803598D01*
X101532379Y-60803596D01*
X101667086Y-60753354D01*
X101667089Y-60753352D01*
X101751188Y-60690396D01*
X101763810Y-60685688D01*
X101773989Y-60676868D01*
X101795905Y-60673716D01*
X101816653Y-60665978D01*
X101829814Y-60668840D01*
X101843147Y-60666924D01*
X101863288Y-60676122D01*
X101884926Y-60680829D01*
X101894450Y-60690353D01*
X101906703Y-60695949D01*
X101918673Y-60714576D01*
X101934332Y-60730234D01*
X101938018Y-60744677D01*
X101944477Y-60754727D01*
X101949500Y-60789662D01*
X101949500Y-61023167D01*
X101929815Y-61090206D01*
X101913181Y-61110848D01*
X101659541Y-61364487D01*
X101659535Y-61364495D01*
X101619982Y-61433004D01*
X101619979Y-61433009D01*
X101614238Y-61454435D01*
X101599500Y-61509438D01*
X101599500Y-68792562D01*
X101609841Y-68831155D01*
X101619978Y-68868986D01*
X101619980Y-68868992D01*
X101625294Y-68878194D01*
X101625296Y-68878202D01*
X101625298Y-68878201D01*
X101659540Y-68937511D01*
X104082489Y-71360460D01*
X104141829Y-71394720D01*
X104151008Y-71400020D01*
X104151012Y-71400022D01*
X104227438Y-71420500D01*
X104227440Y-71420500D01*
X136183560Y-71420500D01*
X136183562Y-71420500D01*
X136259989Y-71400021D01*
X136328511Y-71360460D01*
X136384460Y-71304511D01*
X137527460Y-70161511D01*
X137550602Y-70121427D01*
X137567021Y-70092989D01*
X137587500Y-70016562D01*
X137587500Y-67237438D01*
X137567022Y-67161012D01*
X137527460Y-67092489D01*
X136056819Y-65621848D01*
X136023334Y-65560525D01*
X136020500Y-65534167D01*
X136020500Y-65315683D01*
X136014068Y-65266828D01*
X136014068Y-65266827D01*
X135964065Y-65159596D01*
X135880404Y-65075935D01*
X135822094Y-65048744D01*
X135769656Y-65002572D01*
X135750500Y-64936363D01*
X135750500Y-64461496D01*
X135770185Y-64394457D01*
X135820039Y-64350095D01*
X135826347Y-64347012D01*
X135912012Y-64261347D01*
X135965220Y-64152509D01*
X135975500Y-64081949D01*
X135975499Y-62338052D01*
X135975499Y-62338049D01*
X135975499Y-62334500D01*
X135995184Y-62267461D01*
X136047987Y-62221706D01*
X136099499Y-62210500D01*
X136664167Y-62210500D01*
X136731206Y-62230185D01*
X136751848Y-62246819D01*
X137163181Y-62658152D01*
X137196666Y-62719475D01*
X137199500Y-62745833D01*
X137199500Y-65541323D01*
X137179815Y-65608362D01*
X137163182Y-65629004D01*
X137099500Y-65692686D01*
X137033608Y-65806812D01*
X137005449Y-65911906D01*
X136999500Y-65934108D01*
X136999500Y-66065892D01*
X137005495Y-66088264D01*
X137033608Y-66193187D01*
X137066554Y-66250250D01*
X137099500Y-66307314D01*
X137192686Y-66400500D01*
X137306814Y-66466392D01*
X137434108Y-66500500D01*
X137434110Y-66500500D01*
X137565890Y-66500500D01*
X137565892Y-66500500D01*
X137693186Y-66466392D01*
X137807314Y-66400500D01*
X137900500Y-66307314D01*
X137966392Y-66193186D01*
X138000500Y-66065892D01*
X138000500Y-65934108D01*
X137966392Y-65806814D01*
X137900500Y-65692686D01*
X137836818Y-65629004D01*
X137803334Y-65567680D01*
X137800500Y-65541323D01*
X137800500Y-62530439D01*
X137792478Y-62500500D01*
X137780021Y-62454011D01*
X137749127Y-62400500D01*
X137740464Y-62385495D01*
X137740458Y-62385487D01*
X137024510Y-61669539D01*
X137004166Y-61657794D01*
X136995026Y-61652517D01*
X136968413Y-61637152D01*
X136955990Y-61629979D01*
X136930513Y-61623152D01*
X136879562Y-61609500D01*
X133810439Y-61609500D01*
X133772225Y-61619739D01*
X133734010Y-61629979D01*
X133707987Y-61645004D01*
X133694975Y-61652517D01*
X133686214Y-61657574D01*
X133665490Y-61669539D01*
X133665488Y-61669541D01*
X133365490Y-61969540D01*
X133365487Y-61969543D01*
X133349925Y-61985104D01*
X133291680Y-62016905D01*
X133291690Y-62016938D01*
X133291531Y-62016987D01*
X133288601Y-62018587D01*
X133283156Y-62019574D01*
X133282488Y-62019781D01*
X133173651Y-62072988D01*
X133087988Y-62158651D01*
X133034780Y-62267488D01*
X133032522Y-62282989D01*
X133024500Y-62338051D01*
X133024500Y-62338055D01*
X133024500Y-62338056D01*
X133024500Y-64081950D01*
X133034779Y-64152506D01*
X133034779Y-64152507D01*
X133034780Y-64152509D01*
X133082563Y-64250250D01*
X133087989Y-64261349D01*
X133173650Y-64347010D01*
X133173651Y-64347010D01*
X133173653Y-64347012D01*
X133179960Y-64350095D01*
X133231542Y-64397223D01*
X133249500Y-64461496D01*
X133249500Y-64936155D01*
X133229815Y-65003194D01*
X133189237Y-65038643D01*
X133190573Y-65040551D01*
X133181685Y-65046774D01*
X133096776Y-65131683D01*
X133046027Y-65240514D01*
X133039500Y-65290098D01*
X133039500Y-65709894D01*
X133039932Y-65713173D01*
X133046028Y-65759487D01*
X133096776Y-65868316D01*
X133181684Y-65953224D01*
X133290513Y-66003972D01*
X133340099Y-66010500D01*
X133699900Y-66010499D01*
X133709534Y-66009230D01*
X133778565Y-66019994D01*
X133824038Y-66060351D01*
X133825502Y-66059217D01*
X133830283Y-66065381D01*
X133944616Y-66179714D01*
X133944625Y-66179721D01*
X134083804Y-66262031D01*
X134230000Y-66304504D01*
X134230000Y-64631362D01*
X134249685Y-64564323D01*
X134250000Y-64563932D01*
X134250000Y-62334500D01*
X134269685Y-62267461D01*
X134322489Y-62221706D01*
X134374000Y-62210500D01*
X134626000Y-62210500D01*
X134693039Y-62230185D01*
X134738794Y-62282989D01*
X134750000Y-62334500D01*
X134750000Y-64768638D01*
X134730315Y-64835677D01*
X134730000Y-64836067D01*
X134730000Y-66304503D01*
X134820906Y-66278094D01*
X134890775Y-66278294D01*
X134949445Y-66316237D01*
X134978288Y-66379875D01*
X134979500Y-66397171D01*
X134979500Y-66684316D01*
X134985931Y-66733171D01*
X134985932Y-66733173D01*
X135035935Y-66840404D01*
X135119596Y-66924065D01*
X135127904Y-66927939D01*
X135180343Y-66974110D01*
X135199500Y-67040321D01*
X135199500Y-67516586D01*
X135179815Y-67583625D01*
X135175270Y-67590219D01*
X135122209Y-67662113D01*
X135122206Y-67662119D01*
X135077353Y-67790298D01*
X135077353Y-67790300D01*
X135074500Y-67820730D01*
X135074500Y-69179269D01*
X135077353Y-69209699D01*
X135077353Y-69209701D01*
X135122206Y-69337880D01*
X135122207Y-69337882D01*
X135202850Y-69447150D01*
X135312118Y-69527793D01*
X135354845Y-69542744D01*
X135440299Y-69572646D01*
X135470730Y-69575500D01*
X135470734Y-69575500D01*
X136329270Y-69575500D01*
X136359699Y-69572646D01*
X136359701Y-69572646D01*
X136423790Y-69550219D01*
X136487882Y-69527793D01*
X136597150Y-69447150D01*
X136677793Y-69337882D01*
X136700219Y-69273790D01*
X136722646Y-69209701D01*
X136722646Y-69209699D01*
X136725500Y-69179269D01*
X136725500Y-67820730D01*
X136722646Y-67790300D01*
X136722646Y-67790298D01*
X136677793Y-67662119D01*
X136677792Y-67662117D01*
X136661146Y-67639562D01*
X136597150Y-67552850D01*
X136487882Y-67472207D01*
X136487880Y-67472206D01*
X136359700Y-67427353D01*
X136329270Y-67424500D01*
X136329266Y-67424500D01*
X135924500Y-67424500D01*
X135857461Y-67404815D01*
X135811706Y-67352011D01*
X135800500Y-67300500D01*
X135800500Y-67040321D01*
X135820185Y-66973282D01*
X135872095Y-66927939D01*
X135880404Y-66924065D01*
X135964065Y-66840404D01*
X136014068Y-66733173D01*
X136016629Y-66713715D01*
X136044893Y-66649822D01*
X136103216Y-66611349D01*
X136173081Y-66610516D01*
X136227249Y-66642220D01*
X136950181Y-67365152D01*
X136983666Y-67426475D01*
X136986500Y-67452833D01*
X136986500Y-69801167D01*
X136966815Y-69868206D01*
X136950181Y-69888848D01*
X136055848Y-70783181D01*
X135994525Y-70816666D01*
X135968167Y-70819500D01*
X104442833Y-70819500D01*
X104375794Y-70799815D01*
X104355152Y-70783181D01*
X102746957Y-69174986D01*
X108975001Y-69174986D01*
X108985494Y-69277697D01*
X109040641Y-69444119D01*
X109040643Y-69444124D01*
X109132684Y-69593345D01*
X109256654Y-69717315D01*
X109405875Y-69809356D01*
X109405880Y-69809358D01*
X109572302Y-69864505D01*
X109572309Y-69864506D01*
X109675019Y-69874999D01*
X109849999Y-69874999D01*
X110350000Y-69874999D01*
X110524972Y-69874999D01*
X110524986Y-69874998D01*
X110627697Y-69864505D01*
X110794119Y-69809358D01*
X110794124Y-69809356D01*
X110943345Y-69717315D01*
X111067315Y-69593345D01*
X111159356Y-69444124D01*
X111159358Y-69444119D01*
X111214505Y-69277697D01*
X111214506Y-69277690D01*
X111224999Y-69174986D01*
X111225000Y-69174973D01*
X111225000Y-68750000D01*
X110350000Y-68750000D01*
X110350000Y-69874999D01*
X109849999Y-69874999D01*
X109850000Y-69874998D01*
X109850000Y-68750000D01*
X108975001Y-68750000D01*
X108975001Y-69174986D01*
X102746957Y-69174986D01*
X102236819Y-68664848D01*
X102203334Y-68603525D01*
X102200500Y-68577167D01*
X102200500Y-67825013D01*
X108975000Y-67825013D01*
X108975000Y-68250000D01*
X109850000Y-68250000D01*
X110350000Y-68250000D01*
X111224999Y-68250000D01*
X111224999Y-67825028D01*
X111224998Y-67825013D01*
X111214505Y-67722302D01*
X111159358Y-67555880D01*
X111159356Y-67555875D01*
X111067315Y-67406654D01*
X110943345Y-67282684D01*
X110794124Y-67190643D01*
X110794119Y-67190641D01*
X110627697Y-67135494D01*
X110627690Y-67135493D01*
X110524986Y-67125000D01*
X110350000Y-67125000D01*
X110350000Y-68250000D01*
X109850000Y-68250000D01*
X109850000Y-67125000D01*
X109675029Y-67125000D01*
X109675012Y-67125001D01*
X109572302Y-67135494D01*
X109405880Y-67190641D01*
X109405875Y-67190643D01*
X109256654Y-67282684D01*
X109132684Y-67406654D01*
X109040643Y-67555875D01*
X109040641Y-67555880D01*
X108985494Y-67722302D01*
X108985493Y-67722309D01*
X108975000Y-67825013D01*
X102200500Y-67825013D01*
X102200500Y-66599504D01*
X102220185Y-66532465D01*
X102272989Y-66486710D01*
X102342147Y-66476766D01*
X102356571Y-66479724D01*
X102434108Y-66500500D01*
X102434111Y-66500500D01*
X102565890Y-66500500D01*
X102565892Y-66500500D01*
X102693186Y-66466392D01*
X102807314Y-66400500D01*
X102900500Y-66307314D01*
X102966392Y-66193186D01*
X103000500Y-66065892D01*
X103000500Y-65975833D01*
X103009144Y-65946395D01*
X103015668Y-65916405D01*
X103019422Y-65911389D01*
X103020185Y-65908794D01*
X103036820Y-65888151D01*
X103088154Y-65836818D01*
X103149477Y-65803334D01*
X103175834Y-65800500D01*
X110006156Y-65800500D01*
X110073195Y-65820185D01*
X110108643Y-65860765D01*
X110110553Y-65859429D01*
X110116775Y-65868315D01*
X110116776Y-65868316D01*
X110201684Y-65953224D01*
X110310513Y-66003972D01*
X110360099Y-66010500D01*
X110719900Y-66010499D01*
X110729534Y-66009230D01*
X110798565Y-66019994D01*
X110844038Y-66060351D01*
X110845502Y-66059217D01*
X110850283Y-66065381D01*
X110964616Y-66179714D01*
X110964625Y-66179721D01*
X111103804Y-66262031D01*
X111250000Y-66304504D01*
X111250000Y-63334000D01*
X111269685Y-63266961D01*
X111322489Y-63221206D01*
X111374000Y-63210000D01*
X111626000Y-63210000D01*
X111693039Y-63229685D01*
X111738794Y-63282489D01*
X111750000Y-63334000D01*
X111750000Y-66304503D01*
X111820905Y-66283905D01*
X111890775Y-66284104D01*
X111949445Y-66322046D01*
X111978288Y-66385685D01*
X111979500Y-66402981D01*
X111979500Y-66684316D01*
X111985931Y-66733171D01*
X111985932Y-66733173D01*
X112035935Y-66840404D01*
X112119596Y-66924065D01*
X112127904Y-66927939D01*
X112180343Y-66974110D01*
X112199500Y-67040321D01*
X112199500Y-67516586D01*
X112179815Y-67583625D01*
X112175270Y-67590219D01*
X112122209Y-67662113D01*
X112122206Y-67662119D01*
X112077353Y-67790298D01*
X112077353Y-67790300D01*
X112074500Y-67820730D01*
X112074500Y-69179269D01*
X112077353Y-69209699D01*
X112077353Y-69209701D01*
X112122206Y-69337880D01*
X112122207Y-69337882D01*
X112202850Y-69447150D01*
X112312118Y-69527793D01*
X112354845Y-69542744D01*
X112440299Y-69572646D01*
X112470730Y-69575500D01*
X112470734Y-69575500D01*
X113329270Y-69575500D01*
X113359699Y-69572646D01*
X113359701Y-69572646D01*
X113423790Y-69550219D01*
X113487882Y-69527793D01*
X113597150Y-69447150D01*
X113677793Y-69337882D01*
X113700219Y-69273790D01*
X113722646Y-69209701D01*
X113722646Y-69209699D01*
X113725500Y-69179269D01*
X113725500Y-69174986D01*
X120475001Y-69174986D01*
X120485494Y-69277697D01*
X120540641Y-69444119D01*
X120540643Y-69444124D01*
X120632684Y-69593345D01*
X120756654Y-69717315D01*
X120905875Y-69809356D01*
X120905880Y-69809358D01*
X121072302Y-69864505D01*
X121072309Y-69864506D01*
X121175019Y-69874999D01*
X121349999Y-69874999D01*
X121850000Y-69874999D01*
X122024972Y-69874999D01*
X122024986Y-69874998D01*
X122127697Y-69864505D01*
X122294119Y-69809358D01*
X122294124Y-69809356D01*
X122443345Y-69717315D01*
X122567315Y-69593345D01*
X122659356Y-69444124D01*
X122659358Y-69444119D01*
X122714505Y-69277697D01*
X122714506Y-69277690D01*
X122724999Y-69174986D01*
X122725000Y-69174973D01*
X122725000Y-68750000D01*
X121850000Y-68750000D01*
X121850000Y-69874999D01*
X121349999Y-69874999D01*
X121350000Y-69874998D01*
X121350000Y-68750000D01*
X120475001Y-68750000D01*
X120475001Y-69174986D01*
X113725500Y-69174986D01*
X113725500Y-67825013D01*
X120475000Y-67825013D01*
X120475000Y-68250000D01*
X121350000Y-68250000D01*
X121850000Y-68250000D01*
X122724999Y-68250000D01*
X122724999Y-67825028D01*
X122724998Y-67825013D01*
X122714505Y-67722302D01*
X122659358Y-67555880D01*
X122659356Y-67555875D01*
X122567315Y-67406654D01*
X122443345Y-67282684D01*
X122294124Y-67190643D01*
X122294119Y-67190641D01*
X122127697Y-67135494D01*
X122127690Y-67135493D01*
X122024986Y-67125000D01*
X121850000Y-67125000D01*
X121850000Y-68250000D01*
X121350000Y-68250000D01*
X121350000Y-67125000D01*
X121175029Y-67125000D01*
X121175012Y-67125001D01*
X121072302Y-67135494D01*
X120905880Y-67190641D01*
X120905875Y-67190643D01*
X120756654Y-67282684D01*
X120632684Y-67406654D01*
X120540643Y-67555875D01*
X120540641Y-67555880D01*
X120485494Y-67722302D01*
X120485493Y-67722309D01*
X120475000Y-67825013D01*
X113725500Y-67825013D01*
X113725500Y-67820730D01*
X113722646Y-67790300D01*
X113722646Y-67790298D01*
X113677793Y-67662119D01*
X113677792Y-67662117D01*
X113661146Y-67639562D01*
X113597150Y-67552850D01*
X113487882Y-67472207D01*
X113487880Y-67472206D01*
X113359700Y-67427353D01*
X113329270Y-67424500D01*
X113329266Y-67424500D01*
X112924500Y-67424500D01*
X112857461Y-67404815D01*
X112811706Y-67352011D01*
X112800500Y-67300500D01*
X112800500Y-67040321D01*
X112820185Y-66973282D01*
X112872095Y-66927939D01*
X112880404Y-66924065D01*
X112964065Y-66840404D01*
X113014068Y-66733173D01*
X113020500Y-66684316D01*
X113020500Y-66335684D01*
X113014068Y-66286827D01*
X112964065Y-66179596D01*
X112880404Y-66095935D01*
X112872733Y-66088264D01*
X112875561Y-66085435D01*
X112844843Y-66047023D01*
X112837635Y-65977526D01*
X112869143Y-65915165D01*
X112872903Y-65911906D01*
X112872733Y-65911736D01*
X112916154Y-65868315D01*
X112964065Y-65820404D01*
X113014068Y-65713173D01*
X113020500Y-65664316D01*
X113020500Y-65315684D01*
X113014068Y-65266827D01*
X112964065Y-65159596D01*
X112880404Y-65075935D01*
X112822094Y-65048744D01*
X112769656Y-65002572D01*
X112750500Y-64936363D01*
X112750500Y-64461496D01*
X112770185Y-64394457D01*
X112820039Y-64350095D01*
X112826347Y-64347012D01*
X112912012Y-64261347D01*
X112965220Y-64152509D01*
X112975500Y-64081949D01*
X112975499Y-62338052D01*
X112975498Y-62338048D01*
X112965220Y-62267493D01*
X112965220Y-62267491D01*
X112912012Y-62158653D01*
X112912010Y-62158651D01*
X112912010Y-62158650D01*
X112826348Y-62072988D01*
X112730028Y-62025900D01*
X112724557Y-62020902D01*
X112717450Y-62018815D01*
X112699118Y-61997659D01*
X112678446Y-61978772D01*
X112676546Y-61971609D01*
X112671695Y-61966011D01*
X112667710Y-61938300D01*
X112660532Y-61911238D01*
X112662805Y-61904186D01*
X112661751Y-61896853D01*
X112673381Y-61871384D01*
X112681973Y-61844740D01*
X112687697Y-61840037D01*
X112690776Y-61833297D01*
X112714330Y-61818159D01*
X112735962Y-61800390D01*
X112744775Y-61798593D01*
X112749554Y-61795523D01*
X112784489Y-61790500D01*
X112977253Y-61790500D01*
X112977259Y-61790500D01*
X113013773Y-61790506D01*
X113013781Y-61790503D01*
X113013810Y-61790500D01*
X113013823Y-61790500D01*
X113013835Y-61790496D01*
X113021884Y-61789438D01*
X113021890Y-61789487D01*
X113022206Y-61789377D01*
X113022429Y-61789348D01*
X113022517Y-61790028D01*
X113041401Y-61787500D01*
X120958627Y-61787500D01*
X120977872Y-61790035D01*
X120977953Y-61789417D01*
X120978511Y-61789490D01*
X120978995Y-61789584D01*
X120985994Y-61790476D01*
X120986173Y-61790499D01*
X120986176Y-61790500D01*
X121025687Y-61790500D01*
X121025692Y-61790500D01*
X121065250Y-61790507D01*
X121065254Y-61790505D01*
X121073336Y-61790507D01*
X121073459Y-61790500D01*
X121215512Y-61790500D01*
X121282551Y-61810185D01*
X121328306Y-61862989D01*
X121338250Y-61932147D01*
X121309225Y-61995703D01*
X121269974Y-62025898D01*
X121209296Y-62055562D01*
X121173650Y-62072989D01*
X121087988Y-62158651D01*
X121034780Y-62267488D01*
X121032522Y-62282989D01*
X121024500Y-62338051D01*
X121024500Y-62338055D01*
X121024500Y-62338056D01*
X121024500Y-64081950D01*
X121034779Y-64152506D01*
X121034779Y-64152507D01*
X121034780Y-64152509D01*
X121082563Y-64250250D01*
X121087989Y-64261349D01*
X121173650Y-64347010D01*
X121173651Y-64347010D01*
X121173653Y-64347012D01*
X121179960Y-64350095D01*
X121231542Y-64397223D01*
X121249500Y-64461496D01*
X121249500Y-64936155D01*
X121229815Y-65003194D01*
X121213182Y-65023836D01*
X121197720Y-65039298D01*
X121181684Y-65046776D01*
X121096776Y-65131684D01*
X121089297Y-65147721D01*
X121073838Y-65163181D01*
X121061585Y-65169871D01*
X121052360Y-65180348D01*
X121031176Y-65186476D01*
X121012515Y-65196666D01*
X120999235Y-65195716D01*
X120986156Y-65199500D01*
X120460438Y-65199500D01*
X120384010Y-65219978D01*
X120315489Y-65259540D01*
X120315486Y-65259542D01*
X120111847Y-65463181D01*
X120050524Y-65496666D01*
X120024166Y-65499500D01*
X119934108Y-65499500D01*
X119806812Y-65533608D01*
X119692686Y-65599500D01*
X119692683Y-65599502D01*
X119599502Y-65692683D01*
X119599500Y-65692686D01*
X119533608Y-65806812D01*
X119505449Y-65911906D01*
X119499500Y-65934108D01*
X119499500Y-66065892D01*
X119505495Y-66088264D01*
X119533608Y-66193187D01*
X119566554Y-66250250D01*
X119599500Y-66307314D01*
X119692686Y-66400500D01*
X119806814Y-66466392D01*
X119934108Y-66500500D01*
X119934110Y-66500500D01*
X120065890Y-66500500D01*
X120065892Y-66500500D01*
X120193186Y-66466392D01*
X120307314Y-66400500D01*
X120400500Y-66307314D01*
X120466392Y-66193186D01*
X120500500Y-66065892D01*
X120500500Y-65975833D01*
X120509144Y-65946395D01*
X120515668Y-65916405D01*
X120519422Y-65911389D01*
X120520185Y-65908794D01*
X120536820Y-65888151D01*
X120588154Y-65836818D01*
X120649477Y-65803334D01*
X120675834Y-65800500D01*
X120986156Y-65800500D01*
X121053195Y-65820185D01*
X121088643Y-65860765D01*
X121090553Y-65859429D01*
X121096775Y-65868315D01*
X121096776Y-65868316D01*
X121181684Y-65953224D01*
X121290513Y-66003972D01*
X121340099Y-66010500D01*
X121699900Y-66010499D01*
X121709534Y-66009230D01*
X121778565Y-66019994D01*
X121824038Y-66060351D01*
X121825502Y-66059217D01*
X121830283Y-66065381D01*
X121944616Y-66179714D01*
X121944625Y-66179721D01*
X122083804Y-66262031D01*
X122230000Y-66304504D01*
X122230000Y-64631362D01*
X122249685Y-64564323D01*
X122250000Y-64563932D01*
X122250000Y-63334000D01*
X122269685Y-63266961D01*
X122322489Y-63221206D01*
X122374000Y-63210000D01*
X122626000Y-63210000D01*
X122693039Y-63229685D01*
X122738794Y-63282489D01*
X122750000Y-63334000D01*
X122750000Y-64768638D01*
X122730315Y-64835677D01*
X122730000Y-64836067D01*
X122730000Y-66304503D01*
X122820906Y-66278094D01*
X122890775Y-66278294D01*
X122949445Y-66316237D01*
X122978288Y-66379875D01*
X122979500Y-66397171D01*
X122979500Y-66684316D01*
X122985931Y-66733171D01*
X122985932Y-66733173D01*
X123035935Y-66840404D01*
X123119596Y-66924065D01*
X123127904Y-66927939D01*
X123180343Y-66974110D01*
X123199500Y-67040321D01*
X123199500Y-67639562D01*
X123213152Y-67690513D01*
X123219979Y-67715990D01*
X123239469Y-67749746D01*
X123239470Y-67749749D01*
X123259537Y-67784507D01*
X123259541Y-67784512D01*
X123538181Y-68063152D01*
X123571666Y-68124475D01*
X123574500Y-68150833D01*
X123574500Y-69179269D01*
X123577353Y-69209699D01*
X123577353Y-69209701D01*
X123622206Y-69337880D01*
X123622207Y-69337882D01*
X123702850Y-69447150D01*
X123812118Y-69527793D01*
X123854845Y-69542744D01*
X123940299Y-69572646D01*
X123970730Y-69575500D01*
X123970734Y-69575500D01*
X124829270Y-69575500D01*
X124859699Y-69572646D01*
X124859701Y-69572646D01*
X124923790Y-69550219D01*
X124987882Y-69527793D01*
X125097150Y-69447150D01*
X125177793Y-69337882D01*
X125200219Y-69273790D01*
X125222646Y-69209701D01*
X125222646Y-69209699D01*
X125225500Y-69179269D01*
X125225500Y-69174986D01*
X131975001Y-69174986D01*
X131985494Y-69277697D01*
X132040641Y-69444119D01*
X132040643Y-69444124D01*
X132132684Y-69593345D01*
X132256654Y-69717315D01*
X132405875Y-69809356D01*
X132405880Y-69809358D01*
X132572302Y-69864505D01*
X132572309Y-69864506D01*
X132675019Y-69874999D01*
X132849999Y-69874999D01*
X133350000Y-69874999D01*
X133524972Y-69874999D01*
X133524986Y-69874998D01*
X133627697Y-69864505D01*
X133794119Y-69809358D01*
X133794124Y-69809356D01*
X133943345Y-69717315D01*
X134067315Y-69593345D01*
X134159356Y-69444124D01*
X134159358Y-69444119D01*
X134214505Y-69277697D01*
X134214506Y-69277690D01*
X134224999Y-69174986D01*
X134225000Y-69174973D01*
X134225000Y-68750000D01*
X133350000Y-68750000D01*
X133350000Y-69874999D01*
X132849999Y-69874999D01*
X132850000Y-69874998D01*
X132850000Y-68750000D01*
X131975001Y-68750000D01*
X131975001Y-69174986D01*
X125225500Y-69174986D01*
X125225500Y-67825013D01*
X131975000Y-67825013D01*
X131975000Y-68250000D01*
X132850000Y-68250000D01*
X133350000Y-68250000D01*
X134224999Y-68250000D01*
X134224999Y-67825028D01*
X134224998Y-67825013D01*
X134214505Y-67722302D01*
X134159358Y-67555880D01*
X134159356Y-67555875D01*
X134067315Y-67406654D01*
X133943345Y-67282684D01*
X133794124Y-67190643D01*
X133794119Y-67190641D01*
X133627697Y-67135494D01*
X133627690Y-67135493D01*
X133524986Y-67125000D01*
X133350000Y-67125000D01*
X133350000Y-68250000D01*
X132850000Y-68250000D01*
X132850000Y-67125000D01*
X132675029Y-67125000D01*
X132675012Y-67125001D01*
X132572302Y-67135494D01*
X132405880Y-67190641D01*
X132405875Y-67190643D01*
X132256654Y-67282684D01*
X132132684Y-67406654D01*
X132040643Y-67555875D01*
X132040641Y-67555880D01*
X131985494Y-67722302D01*
X131985493Y-67722309D01*
X131975000Y-67825013D01*
X125225500Y-67825013D01*
X125225500Y-67820730D01*
X125222646Y-67790300D01*
X125222646Y-67790298D01*
X125177793Y-67662119D01*
X125177792Y-67662117D01*
X125161146Y-67639562D01*
X125097150Y-67552850D01*
X124987882Y-67472207D01*
X124987880Y-67472206D01*
X124859700Y-67427353D01*
X124829270Y-67424500D01*
X124829266Y-67424500D01*
X123970734Y-67424500D01*
X123951851Y-67426270D01*
X123936075Y-67427750D01*
X123867491Y-67414409D01*
X123817007Y-67366107D01*
X123800500Y-67304291D01*
X123800500Y-67040321D01*
X123820185Y-66973282D01*
X123872095Y-66927939D01*
X123880404Y-66924065D01*
X123964065Y-66840404D01*
X124014068Y-66733173D01*
X124020500Y-66684316D01*
X124020500Y-66335684D01*
X124014068Y-66286827D01*
X123964065Y-66179596D01*
X123880404Y-66095935D01*
X123872733Y-66088264D01*
X123875561Y-66085435D01*
X123844843Y-66047023D01*
X123837635Y-65977526D01*
X123869143Y-65915165D01*
X123872903Y-65911906D01*
X123872733Y-65911736D01*
X123916154Y-65868315D01*
X123964065Y-65820404D01*
X124014068Y-65713173D01*
X124020500Y-65664316D01*
X124020500Y-65315684D01*
X124014068Y-65266827D01*
X123964065Y-65159596D01*
X123880404Y-65075935D01*
X123822094Y-65048744D01*
X123769656Y-65002572D01*
X123750500Y-64936363D01*
X123750500Y-64461496D01*
X123770185Y-64394457D01*
X123820039Y-64350095D01*
X123826347Y-64347012D01*
X123912012Y-64261347D01*
X123965220Y-64152509D01*
X123975500Y-64081949D01*
X123975499Y-62338052D01*
X123975498Y-62338048D01*
X123965220Y-62267493D01*
X123965220Y-62267491D01*
X123912012Y-62158653D01*
X123912010Y-62158651D01*
X123912010Y-62158650D01*
X123826348Y-62072988D01*
X123717508Y-62019779D01*
X123708309Y-62016937D01*
X123708882Y-62015080D01*
X123656370Y-61990978D01*
X123650071Y-61985101D01*
X122892511Y-61227541D01*
X122892503Y-61227535D01*
X122857010Y-61207043D01*
X122856978Y-61207026D01*
X122855182Y-61205989D01*
X122823988Y-61187979D01*
X122818513Y-61186511D01*
X122806464Y-61180086D01*
X122785652Y-61159680D01*
X122762962Y-61141397D01*
X122761003Y-61135512D01*
X122756574Y-61131170D01*
X122750099Y-61102755D01*
X122740895Y-61075104D01*
X122742428Y-61069093D01*
X122741051Y-61063046D01*
X122750965Y-61035644D01*
X122758172Y-61007404D01*
X122762711Y-61003176D01*
X122764822Y-60997345D01*
X122787978Y-60979651D01*
X122809308Y-60959792D01*
X122810355Y-60959274D01*
X122833081Y-60948163D01*
X122876347Y-60927012D01*
X122876349Y-60927010D01*
X122887319Y-60916041D01*
X122948642Y-60882556D01*
X123018334Y-60887540D01*
X123062681Y-60916041D01*
X123073651Y-60927011D01*
X123182488Y-60980219D01*
X123182489Y-60980219D01*
X123182491Y-60980220D01*
X123253051Y-60990500D01*
X123646948Y-60990499D01*
X123646950Y-60990499D01*
X123679170Y-60985805D01*
X123717509Y-60980220D01*
X123826347Y-60927012D01*
X123912012Y-60841347D01*
X123965220Y-60732509D01*
X123975500Y-60661949D01*
X123975499Y-58918052D01*
X123965220Y-58847491D01*
X123912012Y-58738653D01*
X123912010Y-58738651D01*
X123912010Y-58738650D01*
X123826350Y-58652990D01*
X123826347Y-58652988D01*
X123820037Y-58649903D01*
X123768456Y-58602774D01*
X123750500Y-58538504D01*
X123750500Y-58063637D01*
X123770185Y-57996598D01*
X123822095Y-57951255D01*
X123831640Y-57946804D01*
X123880404Y-57924065D01*
X123964065Y-57840404D01*
X124014068Y-57733173D01*
X124020500Y-57684316D01*
X124020500Y-57335684D01*
X124014068Y-57286827D01*
X123964065Y-57179596D01*
X123880404Y-57095935D01*
X123872733Y-57088264D01*
X123875561Y-57085435D01*
X123844843Y-57047023D01*
X123837635Y-56977526D01*
X123869143Y-56915165D01*
X123872903Y-56911906D01*
X123872733Y-56911736D01*
X123880404Y-56904065D01*
X123964065Y-56820404D01*
X124014068Y-56713173D01*
X124020500Y-56664316D01*
X124020500Y-56315684D01*
X124020499Y-56315677D01*
X124020298Y-56312610D01*
X124020500Y-56311707D01*
X124020500Y-56311625D01*
X124020518Y-56311625D01*
X124035556Y-56244427D01*
X124085255Y-56195316D01*
X124144033Y-56180500D01*
X125975638Y-56180500D01*
X126042677Y-56200185D01*
X126063319Y-56216819D01*
X126521011Y-56674511D01*
X126576960Y-56730460D01*
X126576962Y-56730461D01*
X126576966Y-56730464D01*
X126645475Y-56770017D01*
X126645482Y-56770021D01*
X126721909Y-56790500D01*
X132954669Y-56790500D01*
X132984028Y-56799121D01*
X133013938Y-56805582D01*
X133019053Y-56809405D01*
X133021708Y-56810185D01*
X133042217Y-56826686D01*
X133119596Y-56904065D01*
X133120021Y-56904263D01*
X133127972Y-56912191D01*
X133139810Y-56933796D01*
X133155183Y-56953042D01*
X133156302Y-56963896D01*
X133161546Y-56973466D01*
X133159824Y-56998038D01*
X133162352Y-57022542D01*
X133157425Y-57032278D01*
X133156663Y-57043165D01*
X133141927Y-57062908D01*
X133130808Y-57084886D01*
X133127101Y-57088098D01*
X133127267Y-57088264D01*
X133035935Y-57179595D01*
X132985931Y-57286828D01*
X132979500Y-57335683D01*
X132979500Y-57684316D01*
X132985931Y-57733171D01*
X132985932Y-57733173D01*
X133035935Y-57840404D01*
X133119596Y-57924065D01*
X133127904Y-57927939D01*
X133180343Y-57974110D01*
X133199500Y-58040321D01*
X133199500Y-58575778D01*
X133179815Y-58642817D01*
X133163181Y-58663459D01*
X133087988Y-58738651D01*
X133034780Y-58847488D01*
X133030925Y-58873951D01*
X133024500Y-58918051D01*
X133024500Y-58918055D01*
X133024500Y-58918056D01*
X133024500Y-60661950D01*
X133034779Y-60732506D01*
X133034779Y-60732507D01*
X133034780Y-60732509D01*
X133072663Y-60809999D01*
X133087989Y-60841349D01*
X133173651Y-60927011D01*
X133282488Y-60980219D01*
X133282489Y-60980219D01*
X133282491Y-60980220D01*
X133353051Y-60990500D01*
X133746948Y-60990499D01*
X133746950Y-60990499D01*
X133779170Y-60985805D01*
X133817509Y-60980220D01*
X133926347Y-60927012D01*
X133926349Y-60927010D01*
X133937319Y-60916041D01*
X133998642Y-60882556D01*
X134068334Y-60887540D01*
X134112681Y-60916041D01*
X134123651Y-60927011D01*
X134232488Y-60980219D01*
X134232489Y-60980219D01*
X134232491Y-60980220D01*
X134303051Y-60990500D01*
X134696948Y-60990499D01*
X134696950Y-60990499D01*
X134729170Y-60985805D01*
X134767509Y-60980220D01*
X134876347Y-60927012D01*
X134876349Y-60927010D01*
X134887319Y-60916041D01*
X134948642Y-60882556D01*
X135018334Y-60887540D01*
X135062681Y-60916041D01*
X135073651Y-60927011D01*
X135182488Y-60980219D01*
X135182489Y-60980219D01*
X135182491Y-60980220D01*
X135253051Y-60990500D01*
X135646948Y-60990499D01*
X135646950Y-60990499D01*
X135679170Y-60985805D01*
X135717509Y-60980220D01*
X135826347Y-60927012D01*
X135912012Y-60841347D01*
X135965220Y-60732509D01*
X135975500Y-60661949D01*
X135975499Y-58918052D01*
X135965220Y-58847491D01*
X135912012Y-58738653D01*
X135912010Y-58738651D01*
X135912010Y-58738650D01*
X135836819Y-58663459D01*
X135803334Y-58602136D01*
X135800500Y-58575778D01*
X135800500Y-58040321D01*
X135820185Y-57973282D01*
X135872095Y-57927939D01*
X135880404Y-57924065D01*
X135964065Y-57840404D01*
X136014068Y-57733173D01*
X136020500Y-57684316D01*
X136020500Y-57335684D01*
X136014068Y-57286827D01*
X135964065Y-57179596D01*
X135880404Y-57095935D01*
X135872733Y-57088264D01*
X135875561Y-57085435D01*
X135844843Y-57047023D01*
X135837635Y-56977526D01*
X135869143Y-56915165D01*
X135872903Y-56911906D01*
X135872733Y-56911736D01*
X135880404Y-56904065D01*
X135964065Y-56820404D01*
X136014068Y-56713173D01*
X136020500Y-56664316D01*
X136020500Y-56315684D01*
X136019976Y-56311707D01*
X136014068Y-56266828D01*
X136006007Y-56249541D01*
X135964065Y-56159596D01*
X135880404Y-56075935D01*
X135773173Y-56025932D01*
X135773171Y-56025931D01*
X135773172Y-56025931D01*
X135724317Y-56019500D01*
X135724316Y-56019500D01*
X135275684Y-56019500D01*
X135275675Y-56019500D01*
X135274407Y-56019583D01*
X135274036Y-56019500D01*
X135271625Y-56019500D01*
X135271625Y-56018960D01*
X135206225Y-56004319D01*
X135178627Y-55983529D01*
X135065383Y-55870285D01*
X135065374Y-55870278D01*
X134926196Y-55787969D01*
X134773396Y-55743577D01*
X134714511Y-55705970D01*
X134685304Y-55642498D01*
X134695050Y-55573311D01*
X134740654Y-55520377D01*
X134807636Y-55500501D01*
X134807991Y-55500500D01*
X149375500Y-55500500D01*
X149442539Y-55520185D01*
X149488294Y-55572989D01*
X149499500Y-55624500D01*
X149499500Y-61413556D01*
X149479815Y-61480595D01*
X149427011Y-61526350D01*
X149386947Y-61537027D01*
X149377567Y-61537896D01*
X148968499Y-61614364D01*
X148968499Y-61614365D01*
X148568268Y-61728240D01*
X148568258Y-61728243D01*
X148568252Y-61728245D01*
X148450117Y-61774011D01*
X148180208Y-61878574D01*
X148180206Y-61878575D01*
X147807704Y-62064059D01*
X147807698Y-62064062D01*
X147453885Y-62283134D01*
X147121804Y-62533909D01*
X147121796Y-62533916D01*
X146814267Y-62814267D01*
X146533916Y-63121796D01*
X146533909Y-63121804D01*
X146283134Y-63453885D01*
X146064062Y-63807698D01*
X146064059Y-63807704D01*
X145878575Y-64180206D01*
X145878574Y-64180208D01*
X145728245Y-64568253D01*
X145728240Y-64568268D01*
X145614365Y-64968499D01*
X145614364Y-64968499D01*
X145537895Y-65377570D01*
X145537895Y-65377571D01*
X145499500Y-65791931D01*
X145499500Y-66208068D01*
X145537895Y-66622428D01*
X145537895Y-66622429D01*
X145557553Y-66727587D01*
X145614363Y-67031493D01*
X145614365Y-67031500D01*
X145726994Y-67427353D01*
X145728245Y-67431748D01*
X145851440Y-67749749D01*
X145878574Y-67819791D01*
X145878575Y-67819793D01*
X146017838Y-68099471D01*
X146064063Y-68192303D01*
X146283133Y-68546113D01*
X146345371Y-68628529D01*
X146533908Y-68878194D01*
X146533912Y-68878198D01*
X146533914Y-68878201D01*
X146814267Y-69185733D01*
X147121799Y-69466086D01*
X147453887Y-69716867D01*
X147807697Y-69935937D01*
X148180212Y-70121427D01*
X148568252Y-70271755D01*
X148968499Y-70385634D01*
X148968499Y-70385635D01*
X148968501Y-70385635D01*
X148968507Y-70385637D01*
X149377563Y-70462103D01*
X149377572Y-70462103D01*
X149377573Y-70462104D01*
X149386938Y-70462972D01*
X149451876Y-70488756D01*
X149492565Y-70545555D01*
X149499500Y-70586443D01*
X149499500Y-76375500D01*
X149479815Y-76442539D01*
X149427011Y-76488294D01*
X149375500Y-76499500D01*
X90624500Y-76499500D01*
X90557461Y-76479815D01*
X90511706Y-76427011D01*
X90500500Y-76375500D01*
X90500500Y-70586443D01*
X90520185Y-70519404D01*
X90572989Y-70473649D01*
X90613062Y-70462972D01*
X90618536Y-70462464D01*
X90622426Y-70462104D01*
X90622429Y-70462104D01*
X90622431Y-70462103D01*
X90622437Y-70462103D01*
X91031493Y-70385637D01*
X91431748Y-70271755D01*
X91819788Y-70121427D01*
X92192303Y-69935937D01*
X92546113Y-69716867D01*
X92878201Y-69466086D01*
X93185733Y-69185733D01*
X93466086Y-68878201D01*
X93466087Y-68878198D01*
X93466092Y-68878194D01*
X93562899Y-68750000D01*
X93716867Y-68546113D01*
X93935937Y-68192303D01*
X94121427Y-67819788D01*
X94271755Y-67431748D01*
X94385637Y-67031493D01*
X94462103Y-66622437D01*
X94463131Y-66611349D01*
X94488675Y-66335683D01*
X94500500Y-66208071D01*
X94500500Y-65791929D01*
X94476563Y-65533608D01*
X94462104Y-65377571D01*
X94462104Y-65377570D01*
X94462103Y-65377563D01*
X94385637Y-64968507D01*
X94271755Y-64568252D01*
X94121427Y-64180212D01*
X93935937Y-63807697D01*
X93716867Y-63453887D01*
X93532692Y-63210000D01*
X93466090Y-63121804D01*
X93466083Y-63121796D01*
X93185733Y-62814267D01*
X92878201Y-62533914D01*
X92878198Y-62533912D01*
X92878195Y-62533909D01*
X92618843Y-62338056D01*
X92546113Y-62283133D01*
X92192303Y-62064063D01*
X92100975Y-62018587D01*
X91819793Y-61878575D01*
X91819791Y-61878574D01*
X91720315Y-61840037D01*
X91431748Y-61728245D01*
X91431734Y-61728241D01*
X91431731Y-61728240D01*
X91031500Y-61614365D01*
X91031500Y-61614364D01*
X90622432Y-61537896D01*
X90613053Y-61537027D01*
X90548117Y-61511237D01*
X90507432Y-61454435D01*
X90500500Y-61413556D01*
X90500500Y-59987513D01*
X100075000Y-59987513D01*
X100502513Y-59559999D01*
X100075000Y-59132486D01*
X100075000Y-59987513D01*
X90500500Y-59987513D01*
X90500500Y-56102155D01*
X97500000Y-56102155D01*
X97500000Y-57897844D01*
X97506401Y-57957372D01*
X97506403Y-57957379D01*
X97556025Y-58090421D01*
X98646447Y-57000000D01*
X98646447Y-56999999D01*
X97556026Y-55909578D01*
X97556025Y-55909578D01*
X97506403Y-56042620D01*
X97506401Y-56042627D01*
X97500000Y-56102155D01*
X90500500Y-56102155D01*
X90500500Y-55624500D01*
X90520185Y-55557461D01*
X90572989Y-55511706D01*
X90624500Y-55500500D01*
X97879899Y-55500500D01*
X97946938Y-55520185D01*
G37*
%TD.AperFunction*%
%TA.AperFunction,Conductor*%
G36*
X120923006Y-56200185D02*
G01*
X120968761Y-56252989D01*
X120979702Y-56312610D01*
X120979500Y-56315677D01*
X120979501Y-56315683D01*
X120979500Y-56315691D01*
X120979500Y-56664316D01*
X120985931Y-56713171D01*
X121035935Y-56820404D01*
X121127267Y-56911736D01*
X121124443Y-56914559D01*
X121155183Y-56953042D01*
X121162352Y-57022542D01*
X121130808Y-57084886D01*
X121127101Y-57088098D01*
X121127267Y-57088264D01*
X121035935Y-57179595D01*
X120985931Y-57286828D01*
X120979500Y-57335683D01*
X120979500Y-57684316D01*
X120985931Y-57733171D01*
X120985932Y-57733173D01*
X121035935Y-57840404D01*
X121119596Y-57924065D01*
X121168360Y-57946804D01*
X121177905Y-57951255D01*
X121230344Y-57997428D01*
X121249500Y-58063637D01*
X121249500Y-58538504D01*
X121229815Y-58605543D01*
X121179963Y-58649903D01*
X121173652Y-58652988D01*
X121173650Y-58652990D01*
X121087988Y-58738651D01*
X121034780Y-58847488D01*
X121030925Y-58873951D01*
X121024500Y-58918051D01*
X121024500Y-58918055D01*
X121024500Y-58918056D01*
X121024501Y-60662500D01*
X121004816Y-60729539D01*
X120952013Y-60775294D01*
X120900501Y-60786500D01*
X113099500Y-60786500D01*
X113032461Y-60766815D01*
X112986706Y-60714011D01*
X112975500Y-60662500D01*
X112975499Y-58918049D01*
X112965220Y-58847493D01*
X112965220Y-58847491D01*
X112912012Y-58738653D01*
X112912010Y-58738651D01*
X112912010Y-58738650D01*
X112836819Y-58663459D01*
X112803334Y-58602136D01*
X112800500Y-58575778D01*
X112800500Y-58040321D01*
X112820185Y-57973282D01*
X112872095Y-57927939D01*
X112880404Y-57924065D01*
X112964065Y-57840404D01*
X113014068Y-57733173D01*
X113020500Y-57684316D01*
X113020500Y-57335684D01*
X113014068Y-57286827D01*
X112964065Y-57179596D01*
X112880404Y-57095935D01*
X112872733Y-57088264D01*
X112875561Y-57085435D01*
X112844843Y-57047023D01*
X112837635Y-56977526D01*
X112869143Y-56915165D01*
X112872028Y-56912191D01*
X112879978Y-56904263D01*
X112880404Y-56904065D01*
X112957778Y-56826691D01*
X112988585Y-56809927D01*
X113018973Y-56793334D01*
X113019104Y-56793319D01*
X113019150Y-56793295D01*
X113019260Y-56793303D01*
X113045331Y-56790500D01*
X119658089Y-56790500D01*
X119658091Y-56790500D01*
X119734518Y-56770021D01*
X119803040Y-56730460D01*
X119858989Y-56674511D01*
X120316681Y-56216819D01*
X120378004Y-56183334D01*
X120404362Y-56180500D01*
X120855967Y-56180500D01*
X120923006Y-56200185D01*
G37*
%TD.AperFunction*%
%TA.AperFunction,Conductor*%
G36*
X119950735Y-55520185D02*
G01*
X119996490Y-55572989D01*
X120006434Y-55642147D01*
X119977409Y-55705703D01*
X119971377Y-55712181D01*
X119530377Y-56153181D01*
X119469054Y-56186666D01*
X119442696Y-56189500D01*
X113045331Y-56189500D01*
X112978292Y-56169815D01*
X112957650Y-56153181D01*
X112880404Y-56075935D01*
X112808960Y-56042620D01*
X112773173Y-56025932D01*
X112773171Y-56025931D01*
X112773172Y-56025931D01*
X112724317Y-56019500D01*
X112724316Y-56019500D01*
X112275684Y-56019500D01*
X112275675Y-56019500D01*
X112274407Y-56019583D01*
X112274036Y-56019500D01*
X112271625Y-56019500D01*
X112271625Y-56018960D01*
X112206225Y-56004319D01*
X112178627Y-55983529D01*
X112065383Y-55870285D01*
X112065374Y-55870278D01*
X111926196Y-55787969D01*
X111773396Y-55743577D01*
X111714511Y-55705970D01*
X111685304Y-55642498D01*
X111695050Y-55573311D01*
X111740654Y-55520377D01*
X111807636Y-55500501D01*
X111807991Y-55500500D01*
X119883696Y-55500500D01*
X119950735Y-55520185D01*
G37*
%TD.AperFunction*%
%TA.AperFunction,Conductor*%
G36*
X134209280Y-55505571D02*
G01*
X134227284Y-55505623D01*
X134242110Y-55515211D01*
X134259048Y-55520185D01*
X134270835Y-55533788D01*
X134285954Y-55543566D01*
X134293242Y-55559647D01*
X134304803Y-55572989D01*
X134307364Y-55590806D01*
X134314797Y-55607204D01*
X134312234Y-55624672D01*
X134314747Y-55642147D01*
X134307268Y-55658521D01*
X134304656Y-55676334D01*
X134293055Y-55689644D01*
X134285722Y-55705703D01*
X134270578Y-55715435D01*
X134258750Y-55729007D01*
X134227229Y-55743293D01*
X134226944Y-55743477D01*
X134226604Y-55743577D01*
X134073803Y-55787969D01*
X133934625Y-55870278D01*
X133934616Y-55870285D01*
X133821373Y-55983529D01*
X133760050Y-56017014D01*
X133728375Y-56019375D01*
X133728375Y-56019500D01*
X133726706Y-56019500D01*
X133725593Y-56019583D01*
X133724325Y-56019500D01*
X133724316Y-56019500D01*
X133275684Y-56019500D01*
X133275683Y-56019500D01*
X133226828Y-56025931D01*
X133119595Y-56075935D01*
X133042350Y-56153181D01*
X132981027Y-56186666D01*
X132954669Y-56189500D01*
X126937304Y-56189500D01*
X126870265Y-56169815D01*
X126849623Y-56153181D01*
X126408623Y-55712181D01*
X126375138Y-55650858D01*
X126380122Y-55581166D01*
X126421994Y-55525233D01*
X126487458Y-55500816D01*
X126496304Y-55500500D01*
X134192009Y-55500500D01*
X134209280Y-55505571D01*
G37*
%TD.AperFunction*%
%TD*%
M02*
