%TF.GenerationSoftware,KiCad,Pcbnew,10.0.2*%
%TF.CreationDate,2026-08-17T14:34:31+02:00*%
%TF.ProjectId,buttons,62757474-6f6e-4732-9e6b-696361645f70,rev?*%
%TF.SameCoordinates,Original*%
%TF.FileFunction,Legend,Bot*%
%TF.FilePolarity,Positive*%
%FSLAX46Y46*%
G04 Gerber Fmt 4.6, Leading zero omitted, Abs format (unit mm)*
G04 Created by KiCad (PCBNEW 10.0.2) date 2026-08-17 14:34:31*
%MOMM*%
%LPD*%
G01*
G04 APERTURE LIST*
%ADD10C,0.300000*%
%ADD11C,0.120000*%
%ADD12C,0.100000*%
G04 APERTURE END LIST*
D10*
X111721489Y-71276198D02*
X111507203Y-71347626D01*
X111507203Y-71347626D02*
X111435774Y-71419055D01*
X111435774Y-71419055D02*
X111364346Y-71561912D01*
X111364346Y-71561912D02*
X111364346Y-71776198D01*
X111364346Y-71776198D02*
X111435774Y-71919055D01*
X111435774Y-71919055D02*
X111507203Y-71990484D01*
X111507203Y-71990484D02*
X111650060Y-72061912D01*
X111650060Y-72061912D02*
X112221489Y-72061912D01*
X112221489Y-72061912D02*
X112221489Y-70561912D01*
X112221489Y-70561912D02*
X111721489Y-70561912D01*
X111721489Y-70561912D02*
X111578632Y-70633341D01*
X111578632Y-70633341D02*
X111507203Y-70704769D01*
X111507203Y-70704769D02*
X111435774Y-70847626D01*
X111435774Y-70847626D02*
X111435774Y-70990484D01*
X111435774Y-70990484D02*
X111507203Y-71133341D01*
X111507203Y-71133341D02*
X111578632Y-71204769D01*
X111578632Y-71204769D02*
X111721489Y-71276198D01*
X111721489Y-71276198D02*
X112221489Y-71276198D01*
X110078632Y-71061912D02*
X110078632Y-72061912D01*
X110721489Y-71061912D02*
X110721489Y-71847626D01*
X110721489Y-71847626D02*
X110650060Y-71990484D01*
X110650060Y-71990484D02*
X110507203Y-72061912D01*
X110507203Y-72061912D02*
X110292917Y-72061912D01*
X110292917Y-72061912D02*
X110150060Y-71990484D01*
X110150060Y-71990484D02*
X110078632Y-71919055D01*
X109578631Y-71061912D02*
X109007203Y-71061912D01*
X109364346Y-70561912D02*
X109364346Y-71847626D01*
X109364346Y-71847626D02*
X109292917Y-71990484D01*
X109292917Y-71990484D02*
X109150060Y-72061912D01*
X109150060Y-72061912D02*
X109007203Y-72061912D01*
X108721488Y-71061912D02*
X108150060Y-71061912D01*
X108507203Y-70561912D02*
X108507203Y-71847626D01*
X108507203Y-71847626D02*
X108435774Y-71990484D01*
X108435774Y-71990484D02*
X108292917Y-72061912D01*
X108292917Y-72061912D02*
X108150060Y-72061912D01*
X107435774Y-72061912D02*
X107578631Y-71990484D01*
X107578631Y-71990484D02*
X107650060Y-71919055D01*
X107650060Y-71919055D02*
X107721488Y-71776198D01*
X107721488Y-71776198D02*
X107721488Y-71347626D01*
X107721488Y-71347626D02*
X107650060Y-71204769D01*
X107650060Y-71204769D02*
X107578631Y-71133341D01*
X107578631Y-71133341D02*
X107435774Y-71061912D01*
X107435774Y-71061912D02*
X107221488Y-71061912D01*
X107221488Y-71061912D02*
X107078631Y-71133341D01*
X107078631Y-71133341D02*
X107007203Y-71204769D01*
X107007203Y-71204769D02*
X106935774Y-71347626D01*
X106935774Y-71347626D02*
X106935774Y-71776198D01*
X106935774Y-71776198D02*
X107007203Y-71919055D01*
X107007203Y-71919055D02*
X107078631Y-71990484D01*
X107078631Y-71990484D02*
X107221488Y-72061912D01*
X107221488Y-72061912D02*
X107435774Y-72061912D01*
X106292917Y-71061912D02*
X106292917Y-72061912D01*
X106292917Y-71204769D02*
X106221488Y-71133341D01*
X106221488Y-71133341D02*
X106078631Y-71061912D01*
X106078631Y-71061912D02*
X105864345Y-71061912D01*
X105864345Y-71061912D02*
X105721488Y-71133341D01*
X105721488Y-71133341D02*
X105650060Y-71276198D01*
X105650060Y-71276198D02*
X105650060Y-72061912D01*
X103792917Y-72061912D02*
X103792917Y-70561912D01*
X103792917Y-70561912D02*
X103221488Y-70561912D01*
X103221488Y-70561912D02*
X103078631Y-70633341D01*
X103078631Y-70633341D02*
X103007202Y-70704769D01*
X103007202Y-70704769D02*
X102935774Y-70847626D01*
X102935774Y-70847626D02*
X102935774Y-71061912D01*
X102935774Y-71061912D02*
X103007202Y-71204769D01*
X103007202Y-71204769D02*
X103078631Y-71276198D01*
X103078631Y-71276198D02*
X103221488Y-71347626D01*
X103221488Y-71347626D02*
X103792917Y-71347626D01*
X101435774Y-71919055D02*
X101507202Y-71990484D01*
X101507202Y-71990484D02*
X101721488Y-72061912D01*
X101721488Y-72061912D02*
X101864345Y-72061912D01*
X101864345Y-72061912D02*
X102078631Y-71990484D01*
X102078631Y-71990484D02*
X102221488Y-71847626D01*
X102221488Y-71847626D02*
X102292917Y-71704769D01*
X102292917Y-71704769D02*
X102364345Y-71419055D01*
X102364345Y-71419055D02*
X102364345Y-71204769D01*
X102364345Y-71204769D02*
X102292917Y-70919055D01*
X102292917Y-70919055D02*
X102221488Y-70776198D01*
X102221488Y-70776198D02*
X102078631Y-70633341D01*
X102078631Y-70633341D02*
X101864345Y-70561912D01*
X101864345Y-70561912D02*
X101721488Y-70561912D01*
X101721488Y-70561912D02*
X101507202Y-70633341D01*
X101507202Y-70633341D02*
X101435774Y-70704769D01*
X100292917Y-71276198D02*
X100078631Y-71347626D01*
X100078631Y-71347626D02*
X100007202Y-71419055D01*
X100007202Y-71419055D02*
X99935774Y-71561912D01*
X99935774Y-71561912D02*
X99935774Y-71776198D01*
X99935774Y-71776198D02*
X100007202Y-71919055D01*
X100007202Y-71919055D02*
X100078631Y-71990484D01*
X100078631Y-71990484D02*
X100221488Y-72061912D01*
X100221488Y-72061912D02*
X100792917Y-72061912D01*
X100792917Y-72061912D02*
X100792917Y-70561912D01*
X100792917Y-70561912D02*
X100292917Y-70561912D01*
X100292917Y-70561912D02*
X100150060Y-70633341D01*
X100150060Y-70633341D02*
X100078631Y-70704769D01*
X100078631Y-70704769D02*
X100007202Y-70847626D01*
X100007202Y-70847626D02*
X100007202Y-70990484D01*
X100007202Y-70990484D02*
X100078631Y-71133341D01*
X100078631Y-71133341D02*
X100150060Y-71204769D01*
X100150060Y-71204769D02*
X100292917Y-71276198D01*
X100292917Y-71276198D02*
X100792917Y-71276198D01*
X98292917Y-71061912D02*
X97935774Y-72061912D01*
X97935774Y-72061912D02*
X97578631Y-71061912D01*
X96721488Y-70561912D02*
X96578631Y-70561912D01*
X96578631Y-70561912D02*
X96435774Y-70633341D01*
X96435774Y-70633341D02*
X96364346Y-70704769D01*
X96364346Y-70704769D02*
X96292917Y-70847626D01*
X96292917Y-70847626D02*
X96221488Y-71133341D01*
X96221488Y-71133341D02*
X96221488Y-71490484D01*
X96221488Y-71490484D02*
X96292917Y-71776198D01*
X96292917Y-71776198D02*
X96364346Y-71919055D01*
X96364346Y-71919055D02*
X96435774Y-71990484D01*
X96435774Y-71990484D02*
X96578631Y-72061912D01*
X96578631Y-72061912D02*
X96721488Y-72061912D01*
X96721488Y-72061912D02*
X96864346Y-71990484D01*
X96864346Y-71990484D02*
X96935774Y-71919055D01*
X96935774Y-71919055D02*
X97007203Y-71776198D01*
X97007203Y-71776198D02*
X97078631Y-71490484D01*
X97078631Y-71490484D02*
X97078631Y-71133341D01*
X97078631Y-71133341D02*
X97007203Y-70847626D01*
X97007203Y-70847626D02*
X96935774Y-70704769D01*
X96935774Y-70704769D02*
X96864346Y-70633341D01*
X96864346Y-70633341D02*
X96721488Y-70561912D01*
X95578632Y-71919055D02*
X95507203Y-71990484D01*
X95507203Y-71990484D02*
X95578632Y-72061912D01*
X95578632Y-72061912D02*
X95650060Y-71990484D01*
X95650060Y-71990484D02*
X95578632Y-71919055D01*
X95578632Y-71919055D02*
X95578632Y-72061912D01*
X94078631Y-72061912D02*
X94935774Y-72061912D01*
X94507203Y-72061912D02*
X94507203Y-70561912D01*
X94507203Y-70561912D02*
X94650060Y-70776198D01*
X94650060Y-70776198D02*
X94792917Y-70919055D01*
X94792917Y-70919055D02*
X94935774Y-70990484D01*
X111721489Y-73691114D02*
X111507203Y-73762542D01*
X111507203Y-73762542D02*
X111435774Y-73833971D01*
X111435774Y-73833971D02*
X111364346Y-73976828D01*
X111364346Y-73976828D02*
X111364346Y-74191114D01*
X111364346Y-74191114D02*
X111435774Y-74333971D01*
X111435774Y-74333971D02*
X111507203Y-74405400D01*
X111507203Y-74405400D02*
X111650060Y-74476828D01*
X111650060Y-74476828D02*
X112221489Y-74476828D01*
X112221489Y-74476828D02*
X112221489Y-72976828D01*
X112221489Y-72976828D02*
X111721489Y-72976828D01*
X111721489Y-72976828D02*
X111578632Y-73048257D01*
X111578632Y-73048257D02*
X111507203Y-73119685D01*
X111507203Y-73119685D02*
X111435774Y-73262542D01*
X111435774Y-73262542D02*
X111435774Y-73405400D01*
X111435774Y-73405400D02*
X111507203Y-73548257D01*
X111507203Y-73548257D02*
X111578632Y-73619685D01*
X111578632Y-73619685D02*
X111721489Y-73691114D01*
X111721489Y-73691114D02*
X112221489Y-73691114D01*
X110864346Y-73476828D02*
X110507203Y-74476828D01*
X110150060Y-73476828D02*
X110507203Y-74476828D01*
X110507203Y-74476828D02*
X110650060Y-74833971D01*
X110650060Y-74833971D02*
X110721489Y-74905400D01*
X110721489Y-74905400D02*
X110864346Y-74976828D01*
X108507203Y-74405400D02*
X108292918Y-74476828D01*
X108292918Y-74476828D02*
X107935775Y-74476828D01*
X107935775Y-74476828D02*
X107792918Y-74405400D01*
X107792918Y-74405400D02*
X107721489Y-74333971D01*
X107721489Y-74333971D02*
X107650060Y-74191114D01*
X107650060Y-74191114D02*
X107650060Y-74048257D01*
X107650060Y-74048257D02*
X107721489Y-73905400D01*
X107721489Y-73905400D02*
X107792918Y-73833971D01*
X107792918Y-73833971D02*
X107935775Y-73762542D01*
X107935775Y-73762542D02*
X108221489Y-73691114D01*
X108221489Y-73691114D02*
X108364346Y-73619685D01*
X108364346Y-73619685D02*
X108435775Y-73548257D01*
X108435775Y-73548257D02*
X108507203Y-73405400D01*
X108507203Y-73405400D02*
X108507203Y-73262542D01*
X108507203Y-73262542D02*
X108435775Y-73119685D01*
X108435775Y-73119685D02*
X108364346Y-73048257D01*
X108364346Y-73048257D02*
X108221489Y-72976828D01*
X108221489Y-72976828D02*
X107864346Y-72976828D01*
X107864346Y-72976828D02*
X107650060Y-73048257D01*
X106721489Y-72976828D02*
X106435775Y-72976828D01*
X106435775Y-72976828D02*
X106292918Y-73048257D01*
X106292918Y-73048257D02*
X106150061Y-73191114D01*
X106150061Y-73191114D02*
X106078632Y-73476828D01*
X106078632Y-73476828D02*
X106078632Y-73976828D01*
X106078632Y-73976828D02*
X106150061Y-74262542D01*
X106150061Y-74262542D02*
X106292918Y-74405400D01*
X106292918Y-74405400D02*
X106435775Y-74476828D01*
X106435775Y-74476828D02*
X106721489Y-74476828D01*
X106721489Y-74476828D02*
X106864347Y-74405400D01*
X106864347Y-74405400D02*
X107007204Y-74262542D01*
X107007204Y-74262542D02*
X107078632Y-73976828D01*
X107078632Y-73976828D02*
X107078632Y-73476828D01*
X107078632Y-73476828D02*
X107007204Y-73191114D01*
X107007204Y-73191114D02*
X106864347Y-73048257D01*
X106864347Y-73048257D02*
X106721489Y-72976828D01*
X105578632Y-72976828D02*
X105221489Y-74476828D01*
X105221489Y-74476828D02*
X104935775Y-73405400D01*
X104935775Y-73405400D02*
X104650060Y-74476828D01*
X104650060Y-74476828D02*
X104292918Y-72976828D01*
X103792917Y-74048257D02*
X103078632Y-74048257D01*
X103935774Y-74476828D02*
X103435774Y-72976828D01*
X103435774Y-72976828D02*
X102935774Y-74476828D01*
%TO.C,R3*%
D11*
X112120000Y-65846359D02*
X112120000Y-66153641D01*
X112880000Y-65846359D02*
X112880000Y-66153641D01*
%TO.C,R2*%
X135120000Y-65846359D02*
X135120000Y-66153641D01*
X135880000Y-65846359D02*
X135880000Y-66153641D01*
%TO.C,R1*%
X123120000Y-65846359D02*
X123120000Y-66153641D01*
X123880000Y-65846359D02*
X123880000Y-66153641D01*
%TO.C,D3*%
X109215000Y-69635000D02*
X109215000Y-67365000D01*
X109215000Y-67365000D02*
X113100000Y-67365000D01*
X113100000Y-69635000D02*
X109215000Y-69635000D01*
%TO.C,D2*%
X132215000Y-69635000D02*
X132215000Y-67365000D01*
X132215000Y-67365000D02*
X136100000Y-67365000D01*
X136100000Y-69635000D02*
X132215000Y-69635000D01*
%TO.C,D1*%
X120715000Y-69635000D02*
X120715000Y-67365000D01*
X120715000Y-67365000D02*
X124600000Y-67365000D01*
X124600000Y-69635000D02*
X120715000Y-69635000D01*
%TO.C,JP5*%
X135880000Y-57153641D02*
X135880000Y-56846359D01*
X135120000Y-57153641D02*
X135120000Y-56846359D01*
%TO.C,JP2*%
X121880000Y-57153641D02*
X121880000Y-56846359D01*
X121120000Y-57153641D02*
X121120000Y-56846359D01*
%TO.C,JP6*%
X133880000Y-57153641D02*
X133880000Y-56846359D01*
X133120000Y-57153641D02*
X133120000Y-56846359D01*
%TO.C,JP4*%
X110880000Y-57153641D02*
X110880000Y-56846359D01*
X110120000Y-57153641D02*
X110120000Y-56846359D01*
%TO.C,C4*%
X111860000Y-57107836D02*
X111860000Y-56892164D01*
X111140000Y-57107836D02*
X111140000Y-56892164D01*
%TO.C,U1*%
X124010000Y-61420000D02*
X124010000Y-62220000D01*
X124010000Y-61420000D02*
X124010000Y-60620000D01*
X120940000Y-62380000D02*
X120940000Y-60620000D01*
X123960000Y-62720000D02*
X124290000Y-62960000D01*
X124290000Y-62480000D01*
X123960000Y-62720000D01*
G36*
X124290000Y-62960000D02*
G01*
X123960000Y-62720000D01*
X124290000Y-62480000D01*
X124290000Y-62960000D01*
G37*
%TO.C,C5*%
X133892164Y-65860000D02*
X134107836Y-65860000D01*
X133892164Y-65140000D02*
X134107836Y-65140000D01*
%TO.C,U3*%
X136010000Y-61420000D02*
X136010000Y-62220000D01*
X136010000Y-61420000D02*
X136010000Y-60620000D01*
X132940000Y-62380000D02*
X132940000Y-60620000D01*
X135960000Y-62720000D02*
X136290000Y-62960000D01*
X136290000Y-62480000D01*
X135960000Y-62720000D01*
G36*
X136290000Y-62960000D02*
G01*
X135960000Y-62720000D01*
X136290000Y-62480000D01*
X136290000Y-62960000D01*
G37*
%TO.C,C6*%
X134860000Y-57107836D02*
X134860000Y-56892164D01*
X134140000Y-57107836D02*
X134140000Y-56892164D01*
%TO.C,C2*%
X122860000Y-57107836D02*
X122860000Y-56892164D01*
X122140000Y-57107836D02*
X122140000Y-56892164D01*
%TO.C,C3*%
X110912164Y-65860000D02*
X111127836Y-65860000D01*
X110912164Y-65140000D02*
X111127836Y-65140000D01*
%TO.C,JP3*%
X112880000Y-57153641D02*
X112880000Y-56846359D01*
X112120000Y-57153641D02*
X112120000Y-56846359D01*
%TO.C,JP1*%
X123120000Y-57153641D02*
X123120000Y-56846359D01*
X123880000Y-57153641D02*
X123880000Y-56846359D01*
%TO.C,U2*%
X113010000Y-61420000D02*
X113010000Y-62220000D01*
X113010000Y-61420000D02*
X113010000Y-60620000D01*
X109940000Y-62380000D02*
X109940000Y-60620000D01*
X112960000Y-62720000D02*
X113290000Y-62960000D01*
X113290000Y-62480000D01*
X112960000Y-62720000D01*
G36*
X113290000Y-62960000D02*
G01*
X112960000Y-62720000D01*
X113290000Y-62480000D01*
X113290000Y-62960000D01*
G37*
%TO.C,J7*%
D12*
X97600000Y-55900000D02*
X107200000Y-55900000D01*
X107200000Y-60600000D01*
X97600000Y-60600000D01*
X97600000Y-55900000D01*
%TO.C,C1*%
D11*
X121892164Y-65860000D02*
X122107836Y-65860000D01*
X121892164Y-65140000D02*
X122107836Y-65140000D01*
%TD*%
M02*
