%TF.GenerationSoftware,KiCad,Pcbnew,10.0.2*%
%TF.CreationDate,2026-08-17T14:34:31+02:00*%
%TF.ProjectId,buttons,62757474-6f6e-4732-9e6b-696361645f70,rev?*%
%TF.SameCoordinates,Original*%
%TF.FileFunction,Copper,L1,Top*%
%TF.FilePolarity,Positive*%
%FSLAX46Y46*%
G04 Gerber Fmt 4.6, Leading zero omitted, Abs format (unit mm)*
G04 Created by KiCad (PCBNEW 10.0.2) date 2026-08-17 14:34:31*
%MOMM*%
%LPD*%
G01*
G04 APERTURE LIST*
G04 Aperture macros list*
%AMRoundRect*
0 Rectangle with rounded corners*
0 $1 Rounding radius*
0 $2 $3 $4 $5 $6 $7 $8 $9 X,Y pos of 4 corners*
0 Add a 4 corners polygon primitive as box body*
4,1,4,$2,$3,$4,$5,$6,$7,$8,$9,$2,$3,0*
0 Add four circle primitives for the rounded corners*
1,1,$1+$1,$2,$3*
1,1,$1+$1,$4,$5*
1,1,$1+$1,$6,$7*
1,1,$1+$1,$8,$9*
0 Add four rect primitives between the rounded corners*
20,1,$1+$1,$2,$3,$4,$5,0*
20,1,$1+$1,$4,$5,$6,$7,0*
20,1,$1+$1,$6,$7,$8,$9,0*
20,1,$1+$1,$8,$9,$2,$3,0*%
G04 Aperture macros list end*
%TA.AperFunction,SMDPad,CuDef*%
%ADD10RoundRect,2.400000X-5.600000X-5.600000X5.600000X-5.600000X5.600000X5.600000X-5.600000X5.600000X0*%
%TD*%
%TA.AperFunction,ViaPad*%
%ADD11C,0.600000*%
%TD*%
G04 APERTURE END LIST*
D10*
%TO.P,TP1,1,1_1*%
%TO.N,Net-(U1-I)*%
X120000000Y-66000000D03*
%TD*%
%TO.P,TP2,1,1_1*%
%TO.N,Net-(U2-I)*%
X102500000Y-66000000D03*
%TD*%
%TO.P,TP3,1,1_1*%
%TO.N,Net-(U3-I)*%
X137500000Y-66000000D03*
%TD*%
D11*
%TO.N,GND*%
X120396000Y-56896000D03*
X122500000Y-56520000D03*
X96520000Y-55880000D03*
X104140000Y-55880000D03*
X109220000Y-55880000D03*
X114300000Y-55880000D03*
X119380000Y-55880000D03*
X127000000Y-55880000D03*
X132080000Y-55880000D03*
X137160000Y-55880000D03*
X142240000Y-55880000D03*
X147320000Y-55880000D03*
X147320000Y-60960000D03*
X147320000Y-71120000D03*
X91440000Y-55880000D03*
X91440000Y-60960000D03*
X91440000Y-71120000D03*
X132080000Y-76200000D03*
X142240000Y-76200000D03*
X147320000Y-76200000D03*
X137160000Y-76200000D03*
X111760000Y-76200000D03*
X121920000Y-76200000D03*
X127000000Y-76200000D03*
X116840000Y-76200000D03*
X106680000Y-76200000D03*
X101600000Y-76200000D03*
X96520000Y-76200000D03*
X91440000Y-76200000D03*
%TO.N,Net-(U3-I)*%
X137500000Y-66000000D03*
%TO.N,Net-(U1-I)*%
X120000000Y-66000000D03*
%TO.N,Net-(U2-I)*%
X102500000Y-66000000D03*
%TD*%
%TA.AperFunction,Conductor*%
%TO.N,GND*%
G36*
X149442539Y-55520185D02*
G01*
X149488294Y-55572989D01*
X149499500Y-55624500D01*
X149499500Y-61413556D01*
X149479815Y-61480595D01*
X149427011Y-61526350D01*
X149386947Y-61537027D01*
X149377567Y-61537896D01*
X148968499Y-61614364D01*
X148968499Y-61614365D01*
X148568268Y-61728240D01*
X148568258Y-61728243D01*
X148568252Y-61728245D01*
X148407818Y-61790397D01*
X148180208Y-61878574D01*
X148180206Y-61878575D01*
X147807704Y-62064059D01*
X147807698Y-62064062D01*
X147453885Y-62283134D01*
X147121804Y-62533909D01*
X147121796Y-62533916D01*
X146814267Y-62814267D01*
X146533916Y-63121796D01*
X146533909Y-63121804D01*
X146283134Y-63453885D01*
X146064063Y-63807697D01*
X145935500Y-64065887D01*
X145887997Y-64117124D01*
X145820334Y-64134545D01*
X145753994Y-64112619D01*
X145710039Y-64058308D01*
X145700500Y-64010615D01*
X145700500Y-60308399D01*
X145699884Y-60296985D01*
X145690318Y-60119678D01*
X145636236Y-59803483D01*
X145543708Y-59496330D01*
X145543706Y-59496323D01*
X145414141Y-59202888D01*
X145414136Y-59202876D01*
X145249483Y-58927570D01*
X145052247Y-58674584D01*
X145052246Y-58674583D01*
X145052243Y-58674579D01*
X144825420Y-58447756D01*
X144572429Y-58250516D01*
X144297127Y-58085866D01*
X144297124Y-58085864D01*
X144297115Y-58085860D01*
X144297111Y-58085858D01*
X144003676Y-57956293D01*
X143696519Y-57863764D01*
X143696513Y-57863763D01*
X143380323Y-57809682D01*
X143380324Y-57809682D01*
X143191600Y-57799500D01*
X131808400Y-57799500D01*
X131619675Y-57809682D01*
X131303486Y-57863763D01*
X131303480Y-57863764D01*
X130996323Y-57956293D01*
X130702888Y-58085858D01*
X130702872Y-58085866D01*
X130427570Y-58250516D01*
X130174579Y-58447756D01*
X129947756Y-58674579D01*
X129750516Y-58927570D01*
X129585866Y-59202872D01*
X129585858Y-59202888D01*
X129456293Y-59496323D01*
X129363764Y-59803480D01*
X129363763Y-59803486D01*
X129309682Y-60119675D01*
X129299500Y-60308399D01*
X129299500Y-71691600D01*
X129309682Y-71880324D01*
X129363763Y-72196513D01*
X129363764Y-72196519D01*
X129456293Y-72503676D01*
X129585858Y-72797111D01*
X129585866Y-72797127D01*
X129750516Y-73072429D01*
X129947756Y-73325420D01*
X130174579Y-73552243D01*
X130174583Y-73552246D01*
X130174584Y-73552247D01*
X130427570Y-73749483D01*
X130702876Y-73914136D01*
X130765933Y-73941978D01*
X130996323Y-74043706D01*
X130996330Y-74043708D01*
X131303483Y-74136236D01*
X131619678Y-74190318D01*
X131808400Y-74200500D01*
X143191600Y-74200500D01*
X143380322Y-74190318D01*
X143696517Y-74136236D01*
X144003670Y-74043708D01*
X144003671Y-74043707D01*
X144003676Y-74043706D01*
X144140805Y-73983156D01*
X144297124Y-73914136D01*
X144572430Y-73749483D01*
X144825416Y-73552247D01*
X145052247Y-73325416D01*
X145249483Y-73072430D01*
X145414136Y-72797124D01*
X145483156Y-72640805D01*
X145543706Y-72503676D01*
X145636235Y-72196519D01*
X145636236Y-72196517D01*
X145690318Y-71880322D01*
X145700500Y-71691600D01*
X145700500Y-67989384D01*
X145720185Y-67922345D01*
X145772989Y-67876590D01*
X145842147Y-67866646D01*
X145905703Y-67895671D01*
X145935500Y-67934113D01*
X146064059Y-68192295D01*
X146064062Y-68192301D01*
X146283134Y-68546114D01*
X146498386Y-68831155D01*
X146533914Y-68878201D01*
X146814267Y-69185733D01*
X147121799Y-69466086D01*
X147453887Y-69716867D01*
X147807697Y-69935937D01*
X148180212Y-70121427D01*
X148568252Y-70271755D01*
X148968499Y-70385634D01*
X148968499Y-70385635D01*
X148968501Y-70385635D01*
X148968507Y-70385637D01*
X149377563Y-70462103D01*
X149377572Y-70462103D01*
X149377573Y-70462104D01*
X149386938Y-70462972D01*
X149451876Y-70488756D01*
X149492565Y-70545555D01*
X149499500Y-70586443D01*
X149499500Y-76375500D01*
X149479815Y-76442539D01*
X149427011Y-76488294D01*
X149375500Y-76499500D01*
X90624500Y-76499500D01*
X90557461Y-76479815D01*
X90511706Y-76427011D01*
X90500500Y-76375500D01*
X90500500Y-70586443D01*
X90520185Y-70519404D01*
X90572989Y-70473649D01*
X90613062Y-70462972D01*
X90618536Y-70462464D01*
X90622426Y-70462104D01*
X90622429Y-70462104D01*
X90622431Y-70462103D01*
X90622437Y-70462103D01*
X91031493Y-70385637D01*
X91431748Y-70271755D01*
X91819788Y-70121427D01*
X92192303Y-69935937D01*
X92546113Y-69716867D01*
X92878201Y-69466086D01*
X93185733Y-69185733D01*
X93466086Y-68878201D01*
X93716867Y-68546113D01*
X93935937Y-68192303D01*
X94064500Y-67934112D01*
X94112003Y-67882875D01*
X94179665Y-67865454D01*
X94246006Y-67887379D01*
X94289961Y-67941691D01*
X94299500Y-67989384D01*
X94299500Y-71691600D01*
X94309682Y-71880324D01*
X94363763Y-72196513D01*
X94363764Y-72196519D01*
X94456293Y-72503676D01*
X94585858Y-72797111D01*
X94585866Y-72797127D01*
X94750516Y-73072429D01*
X94947756Y-73325420D01*
X95174579Y-73552243D01*
X95174583Y-73552246D01*
X95174584Y-73552247D01*
X95427570Y-73749483D01*
X95702876Y-73914136D01*
X95765933Y-73941978D01*
X95996323Y-74043706D01*
X95996330Y-74043708D01*
X96303483Y-74136236D01*
X96619678Y-74190318D01*
X96808400Y-74200500D01*
X108191600Y-74200500D01*
X108380322Y-74190318D01*
X108696517Y-74136236D01*
X109003670Y-74043708D01*
X109003671Y-74043707D01*
X109003676Y-74043706D01*
X109140805Y-73983156D01*
X109297124Y-73914136D01*
X109572430Y-73749483D01*
X109825416Y-73552247D01*
X110052247Y-73325416D01*
X110249483Y-73072430D01*
X110414136Y-72797124D01*
X110483156Y-72640805D01*
X110543706Y-72503676D01*
X110636235Y-72196519D01*
X110636236Y-72196517D01*
X110690318Y-71880322D01*
X110700500Y-71691600D01*
X110700500Y-60308400D01*
X110700500Y-60308399D01*
X111799500Y-60308399D01*
X111799500Y-71691600D01*
X111809682Y-71880324D01*
X111863763Y-72196513D01*
X111863764Y-72196519D01*
X111956293Y-72503676D01*
X112085858Y-72797111D01*
X112085866Y-72797127D01*
X112250516Y-73072429D01*
X112447756Y-73325420D01*
X112674579Y-73552243D01*
X112674583Y-73552246D01*
X112674584Y-73552247D01*
X112927570Y-73749483D01*
X113202876Y-73914136D01*
X113265933Y-73941978D01*
X113496323Y-74043706D01*
X113496330Y-74043708D01*
X113803483Y-74136236D01*
X114119678Y-74190318D01*
X114308400Y-74200500D01*
X125691600Y-74200500D01*
X125880322Y-74190318D01*
X126196517Y-74136236D01*
X126503670Y-74043708D01*
X126503671Y-74043707D01*
X126503676Y-74043706D01*
X126640805Y-73983156D01*
X126797124Y-73914136D01*
X127072430Y-73749483D01*
X127325416Y-73552247D01*
X127552247Y-73325416D01*
X127749483Y-73072430D01*
X127914136Y-72797124D01*
X127983156Y-72640805D01*
X128043706Y-72503676D01*
X128136235Y-72196519D01*
X128136236Y-72196517D01*
X128190318Y-71880322D01*
X128200500Y-71691600D01*
X128200500Y-60308400D01*
X128190318Y-60119678D01*
X128136236Y-59803483D01*
X128043708Y-59496330D01*
X128043706Y-59496323D01*
X127914141Y-59202888D01*
X127914136Y-59202876D01*
X127749483Y-58927570D01*
X127552247Y-58674584D01*
X127552246Y-58674583D01*
X127552243Y-58674579D01*
X127325420Y-58447756D01*
X127072429Y-58250516D01*
X126797127Y-58085866D01*
X126797124Y-58085864D01*
X126797115Y-58085860D01*
X126797111Y-58085858D01*
X126503676Y-57956293D01*
X126196519Y-57863764D01*
X126196513Y-57863763D01*
X125880323Y-57809682D01*
X125880324Y-57809682D01*
X125691600Y-57799500D01*
X114308400Y-57799500D01*
X114119675Y-57809682D01*
X113803486Y-57863763D01*
X113803480Y-57863764D01*
X113496323Y-57956293D01*
X113202888Y-58085858D01*
X113202872Y-58085866D01*
X112927570Y-58250516D01*
X112674579Y-58447756D01*
X112447756Y-58674579D01*
X112250516Y-58927570D01*
X112085866Y-59202872D01*
X112085858Y-59202888D01*
X111956293Y-59496323D01*
X111863764Y-59803480D01*
X111863763Y-59803486D01*
X111809682Y-60119675D01*
X111799500Y-60308399D01*
X110700500Y-60308399D01*
X110690318Y-60119678D01*
X110636236Y-59803483D01*
X110543708Y-59496330D01*
X110543706Y-59496323D01*
X110414141Y-59202888D01*
X110414136Y-59202876D01*
X110249483Y-58927570D01*
X110052247Y-58674584D01*
X110052246Y-58674583D01*
X110052243Y-58674579D01*
X109825420Y-58447756D01*
X109572429Y-58250516D01*
X109297127Y-58085866D01*
X109297124Y-58085864D01*
X109297115Y-58085860D01*
X109297111Y-58085858D01*
X109003676Y-57956293D01*
X108696519Y-57863764D01*
X108696513Y-57863763D01*
X108380323Y-57809682D01*
X108380324Y-57809682D01*
X108191600Y-57799500D01*
X96808400Y-57799500D01*
X96619675Y-57809682D01*
X96303486Y-57863763D01*
X96303480Y-57863764D01*
X95996323Y-57956293D01*
X95702888Y-58085858D01*
X95702872Y-58085866D01*
X95427570Y-58250516D01*
X95174579Y-58447756D01*
X94947756Y-58674579D01*
X94750516Y-58927570D01*
X94585866Y-59202872D01*
X94585858Y-59202888D01*
X94456293Y-59496323D01*
X94363764Y-59803480D01*
X94363763Y-59803486D01*
X94309682Y-60119675D01*
X94299500Y-60308399D01*
X94299500Y-64010615D01*
X94279815Y-64077654D01*
X94227011Y-64123409D01*
X94157853Y-64133353D01*
X94094297Y-64104328D01*
X94064500Y-64065887D01*
X94036978Y-64010615D01*
X93935937Y-63807697D01*
X93716867Y-63453887D01*
X93544843Y-63226091D01*
X93466090Y-63121804D01*
X93466083Y-63121796D01*
X93185733Y-62814267D01*
X92878201Y-62533914D01*
X92878198Y-62533912D01*
X92878195Y-62533909D01*
X92546114Y-62283134D01*
X92546113Y-62283133D01*
X92192303Y-62064063D01*
X91931318Y-61934108D01*
X91819793Y-61878575D01*
X91819791Y-61878574D01*
X91752615Y-61852550D01*
X91431748Y-61728245D01*
X91431734Y-61728241D01*
X91431731Y-61728240D01*
X91031500Y-61614365D01*
X91031500Y-61614364D01*
X90622432Y-61537896D01*
X90613053Y-61537027D01*
X90548117Y-61511237D01*
X90507432Y-61454435D01*
X90500500Y-61413556D01*
X90500500Y-55624500D01*
X90520185Y-55557461D01*
X90572989Y-55511706D01*
X90624500Y-55500500D01*
X149375500Y-55500500D01*
X149442539Y-55520185D01*
G37*
%TD.AperFunction*%
%TD*%
M02*
