%TF.GenerationSoftware,KiCad,Pcbnew,10.0.2*%
%TF.CreationDate,2026-08-17T14:34:31+02:00*%
%TF.ProjectId,buttons,62757474-6f6e-4732-9e6b-696361645f70,rev?*%
%TF.SameCoordinates,Original*%
%TF.FileFunction,Soldermask,Bot*%
%TF.FilePolarity,Negative*%
%FSLAX46Y46*%
G04 Gerber Fmt 4.6, Leading zero omitted, Abs format (unit mm)*
G04 Created by KiCad (PCBNEW 10.0.2) date 2026-08-17 14:34:31*
%MOMM*%
%LPD*%
G01*
G04 APERTURE LIST*
G04 Aperture macros list*
%AMRoundRect*
0 Rectangle with rounded corners*
0 $1 Rounding radius*
0 $2 $3 $4 $5 $6 $7 $8 $9 X,Y pos of 4 corners*
0 Add a 4 corners polygon primitive as box body*
4,1,4,$2,$3,$4,$5,$6,$7,$8,$9,$2,$3,0*
0 Add four circle primitives for the rounded corners*
1,1,$1+$1,$2,$3*
1,1,$1+$1,$4,$5*
1,1,$1+$1,$6,$7*
1,1,$1+$1,$8,$9*
0 Add four rect primitives between the rounded corners*
20,1,$1+$1,$2,$3,$4,$5,0*
20,1,$1+$1,$4,$5,$6,$7,0*
20,1,$1+$1,$6,$7,$8,$9,0*
20,1,$1+$1,$8,$9,$2,$3,0*%
G04 Aperture macros list end*
%ADD10RoundRect,0.135000X-0.185000X0.135000X-0.185000X-0.135000X0.185000X-0.135000X0.185000X0.135000X0*%
%ADD11RoundRect,0.250000X-0.375000X-0.625000X0.375000X-0.625000X0.375000X0.625000X-0.375000X0.625000X0*%
%ADD12RoundRect,0.135000X0.185000X-0.135000X0.185000X0.135000X-0.185000X0.135000X-0.185000X-0.135000X0*%
%ADD13RoundRect,0.140000X0.170000X-0.140000X0.170000X0.140000X-0.170000X0.140000X-0.170000X-0.140000X0*%
%ADD14RoundRect,0.162500X0.162500X-0.837500X0.162500X0.837500X-0.162500X0.837500X-0.162500X-0.837500X0*%
%ADD15RoundRect,0.140000X-0.140000X-0.170000X0.140000X-0.170000X0.140000X0.170000X-0.140000X0.170000X0*%
%ADD16R,0.350000X1.500000*%
%ADD17R,2.000000X1.700000*%
G04 APERTURE END LIST*
D10*
%TO.C,R3*%
X112500000Y-65490000D03*
X112500000Y-66510000D03*
%TD*%
%TO.C,R2*%
X135500000Y-65490000D03*
X135500000Y-66510000D03*
%TD*%
%TO.C,R1*%
X123500000Y-65490000D03*
X123500000Y-66510000D03*
%TD*%
D11*
%TO.C,D3*%
X110100000Y-68500000D03*
X112900000Y-68500000D03*
%TD*%
%TO.C,D2*%
X133100000Y-68500000D03*
X135900000Y-68500000D03*
%TD*%
%TO.C,D1*%
X121600000Y-68500000D03*
X124400000Y-68500000D03*
%TD*%
D12*
%TO.C,JP5*%
X135500000Y-57510000D03*
X135500000Y-56490000D03*
%TD*%
%TO.C,JP2*%
X121500000Y-57510000D03*
X121500000Y-56490000D03*
%TD*%
%TO.C,JP6*%
X133500000Y-57510000D03*
X133500000Y-56490000D03*
%TD*%
%TO.C,JP4*%
X110500000Y-57510000D03*
X110500000Y-56490000D03*
%TD*%
D13*
%TO.C,C4*%
X111500000Y-57480000D03*
X111500000Y-56520000D03*
%TD*%
D14*
%TO.C,U1*%
X123450000Y-63210000D03*
X122500000Y-63210000D03*
X121550000Y-63210000D03*
X121550000Y-59790000D03*
X122500000Y-59790000D03*
X123450000Y-59790000D03*
%TD*%
D15*
%TO.C,C5*%
X133520000Y-65500000D03*
X134480000Y-65500000D03*
%TD*%
D14*
%TO.C,U3*%
X135450000Y-63210000D03*
X134500000Y-63210000D03*
X133550000Y-63210000D03*
X133550000Y-59790000D03*
X134500000Y-59790000D03*
X135450000Y-59790000D03*
%TD*%
D13*
%TO.C,C6*%
X134500000Y-57480000D03*
X134500000Y-56520000D03*
%TD*%
%TO.C,C2*%
X122500000Y-57480000D03*
X122500000Y-56520000D03*
%TD*%
D15*
%TO.C,C3*%
X110540000Y-65500000D03*
X111500000Y-65500000D03*
%TD*%
D12*
%TO.C,JP3*%
X112500000Y-57510000D03*
X112500000Y-56490000D03*
%TD*%
%TO.C,JP1*%
X123500000Y-57510000D03*
X123500000Y-56490000D03*
%TD*%
D14*
%TO.C,U2*%
X112450000Y-63210000D03*
X111500000Y-63210000D03*
X110550000Y-63210000D03*
X110550000Y-59790000D03*
X111500000Y-59790000D03*
X112450000Y-59790000D03*
%TD*%
D16*
%TO.C,J7*%
X100750000Y-59560000D03*
X101250000Y-59560000D03*
X101750000Y-59560000D03*
X102250000Y-59560000D03*
X102750000Y-59560000D03*
X103250000Y-59560000D03*
X103750000Y-59560000D03*
X104250000Y-59560000D03*
D17*
X106000000Y-57000000D03*
X99000000Y-57000000D03*
%TD*%
D15*
%TO.C,C1*%
X121520000Y-65500000D03*
X122480000Y-65500000D03*
%TD*%
M02*
