M48
; DRILL file KiCad 10.0.2 date 2026-08-17T14:34:27
; FORMAT={-:-/ absolute / metric / decimal}
; #@! TF.CreationDate,2026-08-17T14:34:27+02:00
; #@! TF.GenerationSoftware,Kicad,Pcbnew,10.0.2
; #@! TF.FileFunction,Plated,1,2,PTH
FMAT,2
METRIC
; #@! TA.AperFunction,Plated,PTH,ViaDrill
T1C0.300
%
G90
G05
T1
X91.44Y-55.88
X91.44Y-60.96
X91.44Y-71.12
X91.44Y-76.2
X96.52Y-55.88
X96.52Y-76.2
X101.6Y-76.2
X102.5Y-66.0
X104.14Y-55.88
X106.68Y-76.2
X109.22Y-55.88
X111.76Y-76.2
X114.3Y-55.88
X116.84Y-76.2
X119.38Y-55.88
X120.0Y-66.0
X120.396Y-56.896
X121.92Y-76.2
X122.5Y-56.52
X127.0Y-55.88
X127.0Y-76.2
X132.08Y-55.88
X132.08Y-76.2
X137.16Y-55.88
X137.16Y-76.2
X137.5Y-66.0
X142.24Y-55.88
X142.24Y-76.2
X147.32Y-55.88
X147.32Y-60.96
X147.32Y-71.12
X147.32Y-76.2
M30
